<?xml version="1.0" ?><svg height="128" id="STROKE_8" viewBox="0 0 128 128" width="128" xmlns="http://www.w3.org/2000/svg"><title/><circle cx="64" cy="64" r="55" style="fill:#abdbf5;opacity:0.3"/><g style="opacity:0.65"><path d="M4.75,62.5a4.00458,4.00458,0,0,1-4-4,1,1,0,0,1,2,0,2,2,0,1,0,2-2,1,1,0,0,1,0-2,4,4,0,0,1,0,8Z" style="fill:#6e85a1"/><path d="M121.5,61a1,1,0,0,1-1-1V58.021a1,1,0,1,1,2,0V60A1,1,0,0,1,121.5,61Z" style="fill:#6e85a1"/><path d="M121.5,66.979a1,1,0,0,1-1-1V64a1,1,0,0,1,2,0v1.979A1,1,0,0,1,121.5,66.979Z" style="fill:#6e85a1"/><path d="M119.5,63h-1.979a1,1,0,1,1,0-2H119.5a1,1,0,0,1,0,2Z" style="fill:#6e85a1"/><path d="M125.479,63H123.5a1,1,0,0,1,0-2h1.979a1,1,0,1,1,0,2Z" style="fill:#6e85a1"/><path d="M122.91406,61.58594a1,1,0,0,1-.707-1.707l1.39941-1.39941a.99989.99989,0,0,1,1.41406,1.41406L123.62109,61.293A.99676.99676,0,0,1,122.91406,61.58594Z" style="fill:#6e85a1"/><path d="M118.68652,65.81348a1,1,0,0,1-.707-1.707l1.39941-1.39941a.99989.99989,0,0,1,1.41406,1.41406l-1.39941,1.39941A.99676.99676,0,0,1,118.68652,65.81348Z" style="fill:#6e85a1"/><path d="M120.08594,61.58594a.99676.99676,0,0,1-.707-.293l-1.39941-1.39941a.99989.99989,0,0,1,1.41406-1.41406l1.39941,1.39941a1,1,0,0,1-.707,1.707Z" style="fill:#6e85a1"/><path d="M124.31348,65.81348a.99676.99676,0,0,1-.707-.293L122.207,64.12109a.99989.99989,0,0,1,1.41406-1.41406l1.39941,1.39941a1,1,0,0,1-.707,1.707Z" style="fill:#6e85a1"/><path d="M32.5,111.45361a1,1,0,0,1-1-1v-.41211a1,1,0,0,1,2,0v.41211A1,1,0,0,1,32.5,111.45361Z" style="fill:#6e85a1"/><path d="M32.5,119a1,1,0,0,1-1-1v-.41211a1,1,0,1,1,2,0V118A1,1,0,0,1,32.5,119Z" style="fill:#6e85a1"/><path d="M28.93262,115.021H28.521a1,1,0,1,1,0-2h.41162a1,1,0,0,1,0,2Z" style="fill:#6e85a1"/><path d="M36.479,115.021h-.41162a1,1,0,0,1,0-2H36.479a1,1,0,0,1,0,2Z" style="fill:#6e85a1"/><path d="M35.02246,112.49854a1,1,0,0,1-.70752-1.70654l.291-.2915a.99989.99989,0,1,1,1.415,1.41309l-.291.2915A.99551.99551,0,0,1,35.02246,112.49854Z" style="fill:#6e85a1"/><path d="M29.68652,117.83447a1,1,0,0,1-.707-1.707l.291-.291a.99989.99989,0,0,1,1.41406,1.41406l-.291.291A.99676.99676,0,0,1,29.68652,117.83447Z" style="fill:#6e85a1"/><path d="M29.97754,112.49854a.99551.99551,0,0,1-.70752-.29346l-.291-.2915a.99989.99989,0,1,1,1.415-1.41309l.291.2915a1,1,0,0,1-.70752,1.70654Z" style="fill:#6e85a1"/><path d="M35.31348,117.83447a.99676.99676,0,0,1-.707-.293l-.291-.291a.99989.99989,0,0,1,1.41406-1.41406l.291.291a1,1,0,0,1-.707,1.707Z" style="fill:#6e85a1"/><path d="M85.93262,6.43262a1,1,0,0,1-1-1V5.021a1,1,0,1,1,2,0v.41162A1,1,0,0,1,85.93262,6.43262Z" style="fill:#6e85a1"/><path d="M85.93262,13.979a1,1,0,0,1-1-1v-.41162a1,1,0,1,1,2,0V12.979A1,1,0,0,1,85.93262,13.979Z" style="fill:#6e85a1"/><path d="M82.36523,10h-.41162a1,1,0,0,1,0-2h.41162a1,1,0,0,1,0,2Z" style="fill:#6e85a1"/><path d="M89.91211,10H89.5a1,1,0,0,1,0-2h.41211a1,1,0,0,1,0,2Z" style="fill:#6e85a1"/><path d="M88.45508,7.47754A1,1,0,0,1,87.74854,5.77l.2915-.291a.99989.99989,0,0,1,1.41309,1.415l-.2915.291A.99718.99718,0,0,1,88.45508,7.47754Z" style="fill:#6e85a1"/><path d="M83.11914,12.81348a1,1,0,0,1-.707-1.707l.291-.291a.99989.99989,0,0,1,1.41406,1.41406l-.291.291A.99676.99676,0,0,1,83.11914,12.81348Z" style="fill:#6e85a1"/><path d="M83.41016,7.47754a.99676.99676,0,0,1-.707-.293l-.291-.291a.99989.99989,0,0,1,1.41406-1.41406l.291.291a1,1,0,0,1-.707,1.707Z" style="fill:#6e85a1"/><path d="M88.74658,12.81348A.99718.99718,0,0,1,88.04,12.521l-.2915-.291a.99989.99989,0,1,1,1.41309-1.415l.2915.291a1,1,0,0,1-.70654,1.70752Z" style="fill:#6e85a1"/><path d="M101.13965,49.36963h-2.52a.9791.9791,0,0,1-.93994-.67969l-.56006-1.68018c-.25977-.08984-.52-.19971-.75977-.31006l-1.58984.79a1.00344,1.00344,0,0,1-1.15039-.18994L91.83984,45.52a.98987.98987,0,0,1-.18994-1.15039l.79-1.58984c-.10986-.23975-.22021-.5-.31006-.75L90.44971,41.46a.98786.98786,0,0,1-.68994-.93994V38a1.00986,1.00986,0,0,1,.68994-.9502l.93018-.31006a1.024,1.024,0,0,1,1.27.62988,1.1985,1.1985,0,0,1,.0498.32031,1.0086,1.0086,0,0,1-.68994.94971l-.25.08008V39.79l1.48.5a.96987.96987,0,0,1,.6499.66992A5.94307,5.94307,0,0,0,94.43994,42.29a.98932.98932,0,0,1,.02.92969l-.7002,1.3999.76025.76025,1.3999-.7002a1.01927,1.01927,0,0,1,.92969.02,6.03625,6.03625,0,0,0,1.33008.55029.9903.9903,0,0,1,.66992.6499l.49023,1.48,1.08008-.01025.48975-1.46973a1.00688,1.00688,0,0,1,.68018-.6499,6.145,6.145,0,0,0,1.31982-.55029,1.04068,1.04068,0,0,1,.93994-.02l1.39014.7002.85986-.85986A1.00659,1.00659,0,0,1,108,44.12988l.10986.23975a.98672.98672,0,0,1-.18018,1.15039L106.1499,47.2998a1.0215,1.0215,0,0,1-1.16016.18994l-1.58008-.79c-.25.11035-.5.22021-.75977.31006l-.56006,1.68018A1.00049,1.00049,0,0,1,101.13965,49.36963Zm5.99023-7.23a1.01357,1.01357,0,0,1-.9502-.67969,1.26966,1.26966,0,0,1-.0498-.33008,1.00028,1.00028,0,0,1,.68018-.93994L108,39.79V38.71973L106.52,38.23a1.02938,1.02938,0,0,1-.65039-.68018,6.30639,6.30639,0,0,0-.53955-1.31982,1.00709,1.00709,0,0,1-.03027-.93994L106,33.8999l-.76025-.76025-1.39014.69043a1.01,1.01,0,0,1-.93994-.02,6.12043,6.12043,0,0,0-1.31982-.55029,1.01381,1.01381,0,0,1-.68018-.64014l-.48975-1.48H99.33984l-.49023,1.48a.99666.99666,0,0,1-.66992.64014,6.22337,6.22337,0,0,0-1.33008.55029.98871.98871,0,0,1-.92969.02L94.52,33.13965l-.76025.76025L94,34.36963a.99957.99957,0,1,1-1.79.89014L91.6499,34.1499a1.00472,1.00472,0,0,1,.18994-1.16016L93.61963,31.21A1.02,1.02,0,0,1,94.77,31.02979l1.58984.79A7.39431,7.39431,0,0,1,97.11963,31.5l.56006-1.68018a.97892.97892,0,0,1,.93994-.68018h2.52a1.00029,1.00029,0,0,1,.9502.68018L102.6499,31.5c.25977.09961.50977.19971.75977.31982l1.58008-.79a1.03828,1.03828,0,0,1,1.16016.18018l1.77979,1.77979a1.00157,1.00157,0,0,1,.18018,1.16016l-.79,1.58008a7.08239,7.08239,0,0,1,.31006.75977l1.68994.56006A1.00029,1.00029,0,0,1,110,38v2.52a.97847.97847,0,0,1-.68018.93994l-1.87012.62988A1.192,1.192,0,0,1,107.12988,42.13965Zm-7.25-.05957A2.82009,2.82009,0,1,1,102.71,39.25977,2.82964,2.82964,0,0,1,99.87988,42.08008Zm0-3.65039a.83915.83915,0,0,0-.81982.83008.82357.82357,0,0,0,.81982.82031.83925.83925,0,0,0,.83008-.82031A.85531.85531,0,0,0,99.87988,38.42969Z" style="fill:#6e85a1"/><path d="M23.17969,99.85986H20.83984a.99091.99091,0,0,1-.9502-.68994l-.52-1.54c-.21973-.08008-.43994-.16992-.6499-.27l-.68994.3501a1.03222,1.03222,0,0,1-1.3501-.4502,1.0193,1.0193,0,0,1-.09961-.44971.98776.98776,0,0,1,.5498-.89014l1.1499-.57031a.98972.98972,0,0,1,.93018.02,5.93048,5.93048,0,0,0,1.23.5,1.03445,1.03445,0,0,1,.66992.65039l.4502,1.32959H22.46L22.90967,96.52a1.01346,1.01346,0,0,1,.67041-.65039,5.95238,5.95238,0,0,0,1.23-.5.98871.98871,0,0,1,.92969-.02L27,95.98l.63965-.64014-.62988-1.25977a1.00893,1.00893,0,0,1,.02-.94043A5.24382,5.24382,0,0,0,27.54,91.91992a1.01115,1.01115,0,0,1,.63965-.68018L29.52,90.7998v-.91016l-1.34033-.43994A1.01141,1.01141,0,0,1,27.54,88.77a5.62447,5.62447,0,0,0-.51025-1.22021.98892.98892,0,0,1-.02-.93018l.62988-1.25977L27,84.71973l-1.26025.62988a1.01618,1.01618,0,0,1-.92969-.02979,6.00691,6.00691,0,0,0-1.23-.5.9724.9724,0,0,1-.67041-.6499L22.46,82.83984h-.8999l-.4502,1.33008a.99125.99125,0,0,1-.66992.6499,5.98461,5.98461,0,0,0-1.23.5,1.01724,1.01724,0,0,1-.93018.02979L17.02,84.71973l-.64014.64014.62988,1.25977a.98892.98892,0,0,1-.02.93018A5.62269,5.62269,0,0,0,16.48,88.77a1.01314,1.01314,0,0,1-.64014.67969L14.5,89.88965v.91016l1.33984.43994a1.01288,1.01288,0,0,1,.64014.68018,5.619,5.619,0,0,0,.50977,1.21973,1.00893,1.00893,0,0,1,.02.94043l-.58984,1.17969a1.00176,1.00176,0,1,1-1.79-.8999l.35986-.72021q-.15015-.32959-.27-.65967l-1.52979-.51025A1.0086,1.0086,0,0,1,12.5,91.52v-2.3501a1.01357,1.01357,0,0,1,.67969-.9502l1.54-.50977c.08008-.22021.16992-.43994.27-.6499L14.27,85.60986A1.00471,1.00471,0,0,1,14.46,84.44971L16.11963,82.79A1.03743,1.03743,0,0,1,17.27,82.59961l1.44971.73047c.21-.1001.43018-.19043.6499-.27l.52-1.54a.98232.98232,0,0,1,.9502-.68018h2.33984a.98188.98188,0,0,1,.9502.68018l.50977,1.54c.23.07959.44043.16992.66016.27l1.4502-.73047a1.03679,1.03679,0,0,1,1.1499.19043l1.66016,1.65967A1.00549,1.00549,0,0,1,29.75,85.60986l-.73,1.4502a5.31856,5.31856,0,0,1,.27979.6499l1.53027.50977a1.00986,1.00986,0,0,1,.68994.9502V91.52a1.00924,1.00924,0,0,1-.68994.94971L29.2998,92.98c-.08984.23-.18018.44971-.27979.6499l.73,1.4502a1.00487,1.00487,0,0,1-.18994,1.15967L27.8999,97.8999a1.00559,1.00559,0,0,1-1.1499.18994l-1.4502-.73a6.499,6.499,0,0,1-.66016.27l-.50977,1.54A1.00921,1.00921,0,0,1,23.17969,99.85986ZM22.00977,93.0498a2.70508,2.70508,0,1,1,2.7002-2.7002A2.70143,2.70143,0,0,1,22.00977,93.0498Zm0-3.41016a.71067.71067,0,0,0-.69971.71.7.7,0,1,0,1.3999,0A.71109.71109,0,0,0,22.00977,89.63965Z" style="fill:#6e85a1"/></g><path d="M106.46119,79.03177l-2.94779-.08237a22.8669,22.8669,0,0,0-1.18535-3.42887l2.26271-1.88674a1.5,1.5,0,0,0,.33364-1.91027l-.73725-1.25858a1.50021,1.50021,0,0,0-1.82947-.64314l-2.75235,1.051a23.01829,23.01829,0,0,0-2.41192-2.70923l1.37048-2.61314a1.5,1.5,0,0,0-.42274-1.89246l-1.16281-.8806a1.5,1.5,0,0,0-1.93621.10592l-2.14391,2.02733A23.02137,23.02137,0,0,0,89.6367,63.3231l.2659-2.93413a1.50018,1.50018,0,0,0-1.11484-1.58673l-1.41128-.36865a1.50014,1.50014,0,0,0-1.74838.83883l-1.203,2.68933A22.87476,22.87476,0,0,0,80.80329,61.75l-.87812-2.81516a1.49987,1.49987,0,0,0-1.63708-1.0392l-1.44491.19951a1.5,1.5,0,0,0-1.29427,1.444l-.08237,2.94779a22.874,22.874,0,0,0-3.42887,1.18535L70.15092,61.4095a1.50014,1.50014,0,0,0-1.91027-.33364l-1.25857.73731a1.50018,1.50018,0,0,0-.64314,1.82947L67.39,66.39491a23.0132,23.0132,0,0,0-2.70928,2.412l-2.61314-1.37048a1.5,1.5,0,0,0-1.89246.42274l-.88061,1.16275a1.5,1.5,0,0,0,.10592,1.93621l2.02734,2.144a23.0248,23.0248,0,0,0-1.58755,3.26147l-2.93412-.26584a1.50018,1.50018,0,0,0-1.58673,1.11484l-.36865,1.41128a1.50009,1.50009,0,0,0,.83889,1.74837l2.68927,1.203a22.8811,22.8811,0,0,0-.2118,3.62179l-2.8151.87811a1.49993,1.49993,0,0,0-1.03925,1.63715l.19951,1.44491a1.49987,1.49987,0,0,0,1.444,1.2942l2.94773.08238a22.88187,22.88187,0,0,0,1.18536,3.42893l-2.26265,1.88673a1.50009,1.50009,0,0,0-.3337,1.91028l.73729,1.25845a1.5,1.5,0,0,0,1.82935.64315l2.75242-1.051a23.02954,23.02954,0,0,0,2.412,2.70928l-1.37049,2.61308a1.5,1.5,0,0,0,.42274,1.89246l1.16276.88067a1.5,1.5,0,0,0,1.9362-.106l2.144-2.02728A23.027,23.027,0,0,0,72.88076,106.16l-.26589,2.93419a1.5,1.5,0,0,0,1.11483,1.58661l1.41134.36859a1.49994,1.49994,0,0,0,1.74832-.83882l1.203-2.68921a22.874,22.874,0,0,0,3.62179.2118l.87812,2.81516a1.5,1.5,0,0,0,1.63715,1.03925l1.44491-.19951a1.49987,1.49987,0,0,0,1.2942-1.444l.08237-2.94779a22.87475,22.87475,0,0,0,3.42893-1.18536l1.88672,2.26259a1.49988,1.49988,0,0,0,1.91015.33366l1.2587-.73726a1.5,1.5,0,0,0,.64315-1.82935l-1.05108-2.75234a23.03113,23.03113,0,0,0,2.70929-2.41193l2.61307,1.37043a1.5,1.5,0,0,0,1.89247-.42268l.88066-1.16282A1.5,1.5,0,0,0,103.117,98.525l-2.02733-2.14391a23.023,23.023,0,0,0,1.58748-3.26153l2.93423.26576a1.50007,1.50007,0,0,0,1.58667-1.11483l.36861-1.41116a1.5,1.5,0,0,0-.83883-1.74838l-2.68933-1.203a22.86766,22.86766,0,0,0,.21179-3.62185l2.81516-.87812a1.49987,1.49987,0,0,0,1.03926-1.63709l-.19951-1.44491A1.49993,1.49993,0,0,0,106.46119,79.03177ZM81.66908,87.71339a3,3,0,1,1,2.56146-3.38215A3,3,0,0,1,81.66908,87.71339Z" style="fill:#eef6ff"/><path d="M106.46119,79.03177l-2.94779-.08237a22.8669,22.8669,0,0,0-1.18535-3.42887l2.26271-1.88674a1.5,1.5,0,0,0,.33364-1.91027l-.73725-1.25858a1.50021,1.50021,0,0,0-1.82947-.64314l-2.75235,1.051a23.01829,23.01829,0,0,0-2.41192-2.70923l1.37048-2.61314a1.5,1.5,0,0,0-.42274-1.89246l-1.16281-.8806a1.5,1.5,0,0,0-1.93621.10592l-2.14391,2.02733A23.02137,23.02137,0,0,0,89.6367,63.3231l.2659-2.93413a1.50018,1.50018,0,0,0-1.11484-1.58673l-1.41128-.36865a1.50014,1.50014,0,0,0-1.74838.83883l-1.203,2.68933A22.87476,22.87476,0,0,0,80.80329,61.75l-.87812-2.81516a1.49987,1.49987,0,0,0-1.63708-1.0392l-1.44491.19951a1.5,1.5,0,0,0-1.29427,1.444l-.08237,2.94779a22.874,22.874,0,0,0-3.42887,1.18535L70.15092,61.4095a1.50014,1.50014,0,0,0-1.91027-.33364l-1.25857.73731a1.50018,1.50018,0,0,0-.64314,1.82947L67.39,66.39491a23.0132,23.0132,0,0,0-2.70928,2.412l-2.61314-1.37048a1.5,1.5,0,0,0-1.89246.42274l-.88061,1.16275a1.5,1.5,0,0,0,.10592,1.93621l2.02734,2.144a23.0248,23.0248,0,0,0-1.58755,3.26147l-2.93412-.26584a1.50018,1.50018,0,0,0-1.58673,1.11484l-.36865,1.41128a1.50009,1.50009,0,0,0,.83889,1.74837l2.68927,1.203a22.8811,22.8811,0,0,0-.2118,3.62179l-2.8151.87811a1.49993,1.49993,0,0,0-1.03925,1.63715l.19951,1.44491a1.49987,1.49987,0,0,0,1.444,1.2942l2.94773.08238a22.88187,22.88187,0,0,0,1.18536,3.42893l-2.26265,1.88673a1.50009,1.50009,0,0,0-.3337,1.91028l.73729,1.25845a1.5,1.5,0,0,0,1.82935.64315l2.75242-1.051a23.02954,23.02954,0,0,0,2.412,2.70928l-1.37049,2.61308a1.5,1.5,0,0,0,.42274,1.89246l1.16276.88067a1.5,1.5,0,0,0,1.9362-.106l2.144-2.02728A23.027,23.027,0,0,0,72.88076,106.16l-.26589,2.93419a1.5,1.5,0,0,0,1.11483,1.58661l1.41134.36859a1.49994,1.49994,0,0,0,1.74832-.83882l1.203-2.68921a22.874,22.874,0,0,0,3.62179.2118l.87812,2.81516a1.5,1.5,0,0,0,1.63715,1.03925l1.44491-.19951a1.49987,1.49987,0,0,0,1.2942-1.444l.08237-2.94779a22.87475,22.87475,0,0,0,3.42893-1.18536l1.88672,2.26259a1.49988,1.49988,0,0,0,1.91015.33366l1.2587-.73726a1.5,1.5,0,0,0,.64315-1.82935l-1.05108-2.75234a23.03113,23.03113,0,0,0,2.70929-2.41193l2.61307,1.37043a1.5,1.5,0,0,0,1.89247-.42268l.88066-1.16282A1.5,1.5,0,0,0,103.117,98.525l-2.02733-2.14391a23.023,23.023,0,0,0,1.58748-3.26153l2.93423.26576a1.50007,1.50007,0,0,0,1.58667-1.11483l.36861-1.41116a1.5,1.5,0,0,0-.83883-1.74838l-2.68933-1.203a22.86766,22.86766,0,0,0,.21179-3.62185l2.81516-.87812a1.49987,1.49987,0,0,0,1.03926-1.63709l-.19951-1.44491A1.49993,1.49993,0,0,0,106.46119,79.03177ZM81.66908,87.71339a3,3,0,1,1,2.56146-3.38215A3,3,0,0,1,81.66908,87.71339Z" style="fill:#b3e1e8"/><path d="M79.75414,73.845a11,11,0,1,0,12.40121,9.392A11,11,0,0,0,79.75414,73.845Zm1.91494,13.86842a3,3,0,1,1,2.56146-3.38215A3,3,0,0,1,81.66908,87.71339Z" style="fill:#fff"/><g style="opacity:0.5"><path d="M80.16448,76.81678a10.99357,10.99357,0,0,1,12.083,7.92172,11.00031,11.00031,0,1,0-21.56722,2.978A10.99353,10.99353,0,0,1,80.16448,76.81678Z" style="fill:#fff"/></g><path d="M55.78963,80.37222l2.68927,1.203a22.9799,22.9799,0,0,0-.187,2.31744,24.00182,24.00182,0,0,1,44.84428-6.1922,22.96028,22.96028,0,0,0-.80809-2.17992l2.26271-1.88674a1.5,1.5,0,0,0,.33364-1.91027l-.73725-1.25858a1.50021,1.50021,0,0,0-1.82947-.64314l-2.75235,1.051a23.01829,23.01829,0,0,0-2.41192-2.70923l1.37048-2.61314a1.5,1.5,0,0,0-.42274-1.89246l-1.16281-.8806a1.5,1.5,0,0,0-1.93621.10592l-2.14391,2.02733A23.02137,23.02137,0,0,0,89.6367,63.3231l.2659-2.93413a1.50018,1.50018,0,0,0-1.11484-1.58673l-1.41128-.36865a1.50014,1.50014,0,0,0-1.74838.83883l-1.203,2.68933A22.87476,22.87476,0,0,0,80.80329,61.75l-.87812-2.81516a1.49987,1.49987,0,0,0-1.63708-1.0392l-1.44491.19951a1.5,1.5,0,0,0-1.29427,1.444l-.08237,2.94779a22.874,22.874,0,0,0-3.42887,1.18535L70.15092,61.4095a1.50014,1.50014,0,0,0-1.91027-.33364l-1.25857.73731a1.50018,1.50018,0,0,0-.64314,1.82947L67.39,66.39491a23.0132,23.0132,0,0,0-2.70928,2.412l-2.61314-1.37048a1.5,1.5,0,0,0-1.89246.42274l-.88061,1.16275a1.5,1.5,0,0,0,.10592,1.93621l2.02734,2.144a23.0248,23.0248,0,0,0-1.58755,3.26147l-2.93412-.26584a1.50018,1.50018,0,0,0-1.58673,1.11484l-.36865,1.41128A1.50009,1.50009,0,0,0,55.78963,80.37222Z" style="fill:#fff;opacity:0.4"/><g style="opacity:0.2"><path d="M57.92911,95.86681l2.26265-1.88673a22.9799,22.9799,0,0,1-.808-2.18,24.00182,24.00182,0,0,0,44.84431-6.192,22.96026,22.96026,0,0,1-.18711,2.31733l2.68933,1.203a1.5,1.5,0,0,1,.83883,1.74838l-.36859,1.41128a1.50021,1.50021,0,0,1-1.58673,1.11484l-2.93418-.26583a23.01829,23.01829,0,0,1-1.58749,3.26147l2.02734,2.144a1.5,1.5,0,0,1,.10592,1.93621l-.88067,1.16276a1.5,1.5,0,0,1-1.89246.42274l-2.61308-1.37049a23.02136,23.02136,0,0,1-2.70928,2.412l1.05107,2.75228a1.50018,1.50018,0,0,1-.64314,1.82947l-1.25857.73731a1.50014,1.50014,0,0,1-1.91027-.33364l-1.88674-2.26271a22.87476,22.87476,0,0,1-3.42893,1.18536l-.08237,2.94779a1.49987,1.49987,0,0,1-1.29421,1.444l-1.44491.19951a1.5,1.5,0,0,1-1.63714-1.03919l-.87812-2.81516a22.874,22.874,0,0,1-3.62179-.2118l-1.203,2.68933a1.50014,1.50014,0,0,1-1.74838.83883l-1.41128-.36865a1.50018,1.50018,0,0,1-1.11484-1.58673l.2659-2.93413a23.0132,23.0132,0,0,1-3.26153-1.58754l-2.144,2.02734a1.5,1.5,0,0,1-1.93621.10592l-1.16275-.88061a1.5,1.5,0,0,1-.42274-1.89246l1.37048-2.61314a23.0248,23.0248,0,0,1-2.412-2.70922l-2.75229,1.051a1.50018,1.50018,0,0,1-1.82947-.64314l-.73731-1.25857A1.50009,1.50009,0,0,1,57.92911,95.86681Z" style="fill:#2c5775"/></g><g style="opacity:0.30000000000000004"><path d="M97.19342,68.16359l1.37048-2.61314a1.5,1.5,0,0,0-.42274-1.89246l-.48957-.37072L83.15516,82.42835A2.99076,2.99076,0,0,1,79.546,87.19392L65.04953,106.335l.48952.37079a1.5,1.5,0,0,0,1.9362-.106l2.144-2.02728c.12245.072.25191.13188.37571.2016L97.4893,68.47061C97.38858,68.37034,97.29591,68.26194,97.19342,68.16359Z" style="fill:#fff"/><path d="M79.428,82.38083,92.72808,64.81935A22.99672,22.99672,0,0,0,89.6367,63.3231l.2659-2.93413a1.50018,1.50018,0,0,0-1.11484-1.58673l-1.41128-.36865a1.50014,1.50014,0,0,0-1.74838.83883l-1.203,2.68933A22.87476,22.87476,0,0,0,80.80329,61.75l-.87812-2.81516a1.49987,1.49987,0,0,0-1.63708-1.0392l-1.44491.19951a1.5,1.5,0,0,0-1.29427,1.444l-.08237,2.94779a22.874,22.874,0,0,0-3.42887,1.18535L70.15092,61.4095a1.50014,1.50014,0,0,0-1.91027-.33364l-1.25857.73731a1.50018,1.50018,0,0,0-.64314,1.82947L67.39,66.39491a23.0132,23.0132,0,0,0-2.70928,2.412l-2.61314-1.37048a1.5,1.5,0,0,0-1.89246.42274l-.88061,1.16275a1.5,1.5,0,0,0,.10592,1.93621l2.02734,2.144a23.0248,23.0248,0,0,0-1.58755,3.26147l-2.93412-.26584a1.50018,1.50018,0,0,0-1.58673,1.11484l-.36865,1.41128a1.50009,1.50009,0,0,0,.83889,1.74837l2.68927,1.203a22.8811,22.8811,0,0,0-.2118,3.62179l-2.8151.87811a1.49993,1.49993,0,0,0-1.03925,1.63715l.19951,1.44491a1.49987,1.49987,0,0,0,1.444,1.2942l2.94773.08238a22.88187,22.88187,0,0,0,1.18536,3.42893l-2.26265,1.88673a1.50009,1.50009,0,0,0-.3337,1.91028l.73729,1.25845a1.5,1.5,0,0,0,1.82935.64315l2.75242-1.051a23.00125,23.00125,0,0,0,2.278,2.57023L78.49018,83.61906A2.99225,2.99225,0,0,1,79.428,82.38083Z" style="fill:#fff"/></g><path d="M85.76855,112.37207a1.00005,1.00005,0,0,1-.19873-1.98.4978.4978,0,0,0,.39941-.47607l.082-2.94775a1.00019,1.00019,0,0,1,.749-.94043,21.89717,21.89717,0,0,0,3.2793-1.1333,1.00162,1.00162,0,0,1,1.16846.27588l1.88672,2.2627a.5084.5084,0,0,0,.63477.1123l1.26025-.73828a.50075.50075,0,0,0,.21436-.61133l-1.05078-2.75049a1.00083,1.00083,0,0,1,.33008-1.1543,22.1767,22.1767,0,0,0,2.59229-2.30713,1.00254,1.00254,0,0,1,1.18555-.19336l2.61279,1.37061a.50923.50923,0,0,0,.63135-.14111l.88086-1.1626a.50072.50072,0,0,0-.03564-.64551l-2.02734-2.144a1.00028,1.00028,0,0,1-.13574-1.19385,22.13621,22.13621,0,0,0,1.519-3.11963,1.00516,1.00516,0,0,1,1.02051-.63086l.99414.08984a1.00014,1.00014,0,1,1-.17969,1.99219l-.25977-.02344c-.29932.6958-.63281,1.38086-.99756,2.04883l1.51953,1.60693a2.50031,2.50031,0,0,1,.17676,3.22705l-.88135,1.16309a2.56683,2.56683,0,0,1-3.15283.70508l-1.95947-1.02783q-.81665.79907-1.70215,1.51563l.78809,2.0625a2.49988,2.49988,0,0,1-1.07227,3.04932l-1.2583.7373a2.55688,2.55688,0,0,1-3.18359-.55615l-1.41406-1.69531c-.70605.28223-1.42676.53125-2.15479.74463l-.06152,2.2085a2.48848,2.48848,0,0,1-1.999,2.38037A1.00979,1.00979,0,0,1,85.76855,112.37207ZM75.521,112.09814a2.49338,2.49338,0,0,1-.63379-.08154l-1.41016-.36816a2.49977,2.49977,0,0,1-1.86816-2.418c0-.07422.00293-.14795.00977-.22217l.19971-2.20361c-.6958-.29883-1.38135-.63281-2.04932-.99756l-1.60693,1.519a2.54926,2.54926,0,0,1-3.22656.17676l-1.1626-.88037a2.49945,2.49945,0,0,1-.70459-3.15527l1.02686-1.95752c-.53223-.54346-1.03906-1.11279-1.51562-1.70215l-2.06348.7876a2.54652,2.54652,0,0,1-3.04834-1.0708l-.7373-1.25928a2.49854,2.49854,0,0,1,.55664-3.18408l1.69482-1.41357c-.28223-.70605-.53125-1.42676-.74512-2.15479l-2.2085-.062a2.49014,2.49014,0,0,1-2.40674-2.15674l-.19971-1.44482a2.62259,2.62259,0,0,1-.02344-.34326,2.4873,2.4873,0,0,1,1.75635-2.38525l2.10791-.6582c.00684-.63916.04-1.28613.09912-1.92725a.99983.99983,0,1,1,1.99121.18359c-.061.66406-.0918,1.33594-.09131,1.99609,0,.15234.00146.30518.00488.45752a.99943.99943,0,0,1-.70166.979L55.75,87.02979a.50331.50331,0,0,0-.35156.47607l.20459,1.51465a.49715.49715,0,0,0,.48047.43115l2.94824.08252a1.0003,1.0003,0,0,1,.94043.74854A21.939,21.939,0,0,0,61.106,93.5625a1.0009,1.0009,0,0,1-.27588,1.16846l-2.2627,1.88672a.4967.4967,0,0,0-.18018.38379.48944.48944,0,0,0,.06885.25244l.73682,1.25879a.50878.50878,0,0,0,.61182.21338l2.751-1.0498a1.00123,1.00123,0,0,1,1.15381.33008,22.00043,22.00043,0,0,0,2.30713,2.59131,1.00037,1.00037,0,0,1,.19336,1.186L64.83936,104.397a.48821.48821,0,0,0-.05762.23145.49629.49629,0,0,0,.19824.39941l1.1626.88037a.43825.43825,0,0,0,.645-.03467l2.14453-2.02734a1.00328,1.00328,0,0,1,1.19385-.13574,22.1115,22.1115,0,0,0,3.12012,1.51855,1.00044,1.00044,0,0,1,.63086,1.02148l-.26611,2.93408a.511.511,0,0,0,.37109.52832l1.41162.36865a.5051.5051,0,0,0,.58252-.27881l1.20361-2.68945a.99781.99781,0,0,1,1.05078-.582l.23.03027a1.00018,1.00018,0,0,1,.31006,1.89258l-.96875,2.16455A2.501,2.501,0,0,1,75.521,112.09814Zm6.9707-.87012a1.00057,1.00057,0,0,1-.9541-.70264l-.5957-1.90918a1,1,0,1,1,1.90918-.5957l.5957,1.90918a1.00146,1.00146,0,0,1-.95508,1.29834Zm25.67383-18.70459-.98291-.19775-.95166-.30957.36865-1.40967a.52817.52817,0,0,0,.01611-.12646.50083.50083,0,0,0-.29639-.45654l-2.689-1.20215a1.00029,1.00029,0,0,1-.58252-1.05029,21.98651,21.98651,0,0,0,.20752-3.00928l-.00488-.4541a1.00069,1.00069,0,0,1,.70215-.97607l2.81494-.87793a.49633.49633,0,0,0,.35107-.47559l-.2041-1.51514a.49847.49847,0,0,0-.481-.43164l-2.94775-.08252a.99973.99973,0,0,1-.94043-.74854,21.93321,21.93321,0,0,0-1.13379-3.2793,1.0009,1.0009,0,0,1,.27588-1.16846l2.2627-1.88672a.49926.49926,0,0,0,.18018-.38428.489.489,0,0,0-.06885-.252l-.7373-1.25928a.506.506,0,0,0-.60986-.21436l-2.752,1.05127a.99922.99922,0,0,1-1.1543-.33057,22.1034,22.1034,0,0,0-2.30713-2.5918.99965.99965,0,0,1-.19336-1.18555l1.37061-2.61328a.5.5,0,0,0-.14062-.63037l-1.16309-.88135a.43874.43874,0,0,0-.645.03516l-2.144,2.02783a1,1,0,0,1-1.19385.13574,22.05407,22.05407,0,0,0-3.12012-1.51855,1.00106,1.00106,0,0,1-.63086-1.02148l.26563-2.93408a.51153.51153,0,0,0-.37158-.5293l-1.41113-.36865a.511.511,0,0,0-.58252.27979l-1.20264,2.68945a.99972.99972,0,0,1-1.05078.58252,21.73642,21.73642,0,0,0-3.46-.20312.96065.96065,0,0,1-.979-.70166l-.87793-2.81494a.49943.49943,0,0,0-.2793-.31055,1,1,0,1,1,.791-1.83691,2.49607,2.49607,0,0,1,1.39746,1.55225l.65771,2.1084c.75781.0083,1.52.05273,2.27637.1333l.90088-2.01514A2.53389,2.53389,0,0,1,87.627,57.46533l1.41357.36963a2.49936,2.49936,0,0,1,1.86816,2.417c0,.07764-.00342.15479-.01074.23242l-.19873,2.19434c.69531.29834,1.38086.63232,2.04932.99756L94.355,62.15674A2.55068,2.55068,0,0,1,97.582,61.98l1.16309.88135a2.50026,2.50026,0,0,1,.70508,3.15234l-1.02783,1.96c.5332.54443,1.04,1.11426,1.51563,1.70215l2.063-.78809A2.54687,2.54687,0,0,1,105.0498,69.959l.7373,1.25928a2.49886,2.49886,0,0,1-.55518,3.18311l-1.69629,1.41455c.28223.70557.53125,1.42627.74512,2.1543l2.2085.062A2.493,2.493,0,0,1,108.896,80.189l.19922,1.44531a2.6242,2.6242,0,0,1,.02344.34375,2.48671,2.48671,0,0,1-1.75586,2.38477l-2.10889.65771c-.0083.75879-.05273,1.521-.1333,2.27637l2.01563.90088A2.50388,2.50388,0,0,1,108.61572,90.48a2.53237,2.53237,0,0,1-.08057.62988Zm-.98291-.19775h0ZM55.793,81.374a1.00059,1.00059,0,0,1-.37012-.07129,2.49912,2.49912,0,0,1-1.44043-2.9292L54.35156,76.96a2.509,2.509,0,0,1,2.64063-1.8584l2.20361.19971c.29834-.69531.63184-1.38037.99756-2.04932L58.67383,71.645a2.50123,2.50123,0,0,1-.17676-3.22656l.88135-1.16309a2.56626,2.56626,0,0,1,3.1543-.7041l1.95752,1.02686c.54395-.53223,1.11328-1.03906,1.70264-1.51562l-.78809-2.063a2.50037,2.50037,0,0,1,1.0708-3.04883l1.25977-.73779a2.55461,2.55461,0,0,1,3.18359.55615l1.41357,1.6958c.07813-.03125.15576-.062.23389-.09229a1.00006,1.00006,0,0,1,.72461,1.86426q-.4314.16772-.853.35205a1.00254,1.00254,0,0,1-1.16846-.27588l-1.88672-2.2627a.508.508,0,0,0-.63672-.11182l-1.25879.7373a.50113.50113,0,0,0-.21387.61133l1.05078,2.751a1.00032,1.00032,0,0,1-.33057,1.1543,21.99082,21.99082,0,0,0-2.59131,2.30713.99978.99978,0,0,1-1.186.19336L61.603,68.32227a.50364.50364,0,0,0-.63037.14063L60.09131,69.626a.50161.50161,0,0,0,.03613.64551L62.1543,72.415A1.00028,1.00028,0,0,1,62.29,73.60889a22.04574,22.04574,0,0,0-1.51855,3.11963.99881.99881,0,0,1-1.02148.63135l-2.93408-.26611H56.811a.51167.51167,0,0,0-.52441.37158l-.36816,1.41113a.512.512,0,0,0-.0166.127.49979.49979,0,0,0,.2959.45557,1.00071,1.00071,0,0,1-.40479,1.915ZM75.50391,62.15479l-.02881-.00049a.99994.99994,0,0,1-.97119-1.02783l.04541-1.61572a2.473,2.473,0,0,1,.09863-.62939.9999.9999,0,0,1,1.91992.55957.513.513,0,0,0-.01953.124l-.04541,1.61816A.99983.99983,0,0,1,75.50391,62.15479Z" style="fill:#647fa1"/><path d="M81.25049,88.74219a4.00052,4.00052,0,1,1,3.9707-4.54785h0a4.00035,4.00035,0,0,1-3.41553,4.50977A4.09582,4.09582,0,0,1,81.25049,88.74219Zm.01318-6.001a2.00043,2.00043,0,0,0-1.2124,3.59473,2.00012,2.00012,0,1,0,1.2124-3.59473Z" style="fill:#647fa1"/><path d="M81.21289,96.74512a11.76642,11.76642,0,0,1-3.84912-.64893,1,1,0,0,1,.65234-1.89062,9.7779,9.7779,0,0,0,3.19678.53955l.16016-.00146a9.94759,9.94759,0,0,0,6.35449-2.37451A6.80685,6.80685,0,0,1,91.49268,90.811l1.40869-.13965a1,1,0,1,1,.19727,1.99023l-1.40869.13965a4.81532,4.81532,0,0,0-2.66748,1.09229,11.9291,11.9291,0,0,1-7.61621,2.8501Zm-6.99072-2.54443a.99442.99442,0,0,1-.63721-.23A11.90417,11.90417,0,0,1,70.7959,90.645a.99986.99986,0,0,1,1.74121-.9834,9.92457,9.92457,0,0,0,2.32324,2.769,1,1,0,0,1-.63818,1.77ZM91.60693,89.479a1.001,1.001,0,0,1-.94043-1.34082,9.91662,9.91662,0,0,0,.59326-3.3833A10.00556,10.00556,0,0,0,81.22314,74.74365a9.74589,9.74589,0,0,0-1.189.07324,10.00863,10.00863,0,0,0-8.77686,9.91064,10.16814,10.16814,0,0,0,.11377,1.51123.99992.99992,0,0,1-1.97754.29785,12.20145,12.20145,0,0,1-.13623-1.80908,12.01075,12.01075,0,0,1,10.53027-11.895,11.62749,11.62749,0,0,1,1.43555-.08887A12.00379,12.00379,0,0,1,93.25977,84.75488a11.91239,11.91239,0,0,1-.7124,4.064A1.0011,1.0011,0,0,1,91.60693,89.479Zm-10.35205-.7373a4.014,4.014,0,0,1-3.9585-3.45312,4.06991,4.06991,0,0,1-.0376-.55127,4,4,0,0,1,7.9624-.543,4.0628,4.0628,0,0,1,.0376.55078,4.01445,4.01445,0,0,1-3.45312,3.959h-.001A4.038,4.038,0,0,1,81.25488,88.7417Zm.41406-1.02832h0Zm-.40576-4.97168a2.07392,2.07392,0,0,0-.27881.019,2.00538,2.00538,0,0,0-1.72559,1.97656,2.07392,2.07392,0,0,0,.019.27881,1.99994,1.99994,0,0,0,3.981-.271,2.06675,2.06675,0,0,0-.019-.27832A2.00538,2.00538,0,0,0,81.26318,82.7417Z" style="fill:#647fa1"/><path d="M77,45a1,1,0,0,1-1-1A33.03734,33.03734,0,0,0,43,11a1,1,0,0,1,0-2A35.03994,35.03994,0,0,1,78,44,1,1,0,0,1,77,45Z" style="fill:#99adbf"/><path d="M77,45a.99676.99676,0,0,1-.707-.293l-3-3A.99989.99989,0,0,1,74.707,40.293L77,42.58594l2.293-2.293A.99989.99989,0,0,1,80.707,41.707l-3,3A.99676.99676,0,0,1,77,45Z" style="fill:#99adbf"/><path d="M41.99951,11.01465a1,1,0,0,1-.02881-1.99951Q42.4834,8.99976,43,9a1,1,0,0,1,0,2q-.48706,0-.9707.01416Z" style="fill:#99adbf"/><path d="M9.36035,40.04a1.00091,1.00091,0,0,1-.99072-1.145q.14795-1.01147.35254-2.00293a1,1,0,1,1,1.959.40332q-.19263.9353-.333,1.88965A.99961.99961,0,0,1,9.36035,40.04Zm1.36426-5.76172a1.00089,1.00089,0,0,1-.94922-1.31592q.32153-.9668.69629-1.9082a1.0002,1.0002,0,0,1,1.8584.74023q-.35376.887-.65625,1.79883A1.0014,1.0014,0,0,1,10.72461,34.27832Zm2.34814-5.4292a1,1,0,0,1-.87842-1.47607q.48486-.89575,1.01855-1.75879A1,1,0,0,1,14.91406,26.666q-.50317.81445-.96094,1.65918A.99945.99945,0,0,1,13.07275,28.84912Zm3.2583-4.94141a1,1,0,0,1-.7832-1.62109q.63208-.79834,1.30859-1.55713a.99983.99983,0,0,1,1.49316,1.33008q-.63794.71631-1.23437,1.46924A.99773.99773,0,0,1,16.33105,23.90771ZM20.397,19.60156a1,1,0,0,1-.666-1.74658q.75952-.67676,1.55762-1.30859a1,1,0,1,1,1.24219,1.56738q-.7522.59619-1.46875,1.23438A.99567.99567,0,0,1,20.397,19.60156Zm4.748-3.541A1.00007,1.00007,0,0,1,24.61768,14.21q.86426-.53467,1.76221-1.02a1.00019,1.00019,0,1,1,.95117,1.75977q-.84595.457-1.66113.96143A.99575.99575,0,0,1,25.145,16.06055Zm5.2915-2.66309a1.00032,1.00032,0,0,1-.37012-1.92969q.94409-.37573,1.91406-.69727a.99995.99995,0,0,1,.62891,1.89844q-.91406.30249-1.80371.65723A.99563.99563,0,0,1,30.43652,13.39746Zm5.67578-1.69922a1.0001,1.0001,0,0,1-.20166-1.97949q.99316-.20508,2.00488-.35205a1.00017,1.00017,0,1,1,.28809,1.97949q-.95288.13843-1.8877.33154A1.00376,1.00376,0,0,1,36.1123,11.69824Z" style="fill:#99adbf"/><path d="M9,45a1,1,0,0,1-1-1q0-.51636.01514-1.0293a1.013,1.013,0,0,1,1.02881-.97021,1,1,0,0,1,.97021,1.02881Q10.00024,43.5127,10,44A1,1,0,0,1,9,45Z" style="fill:#99adbf"/><path d="M81,120a1,1,0,0,1,0-2,33.03734,33.03734,0,0,0,33-33,1,1,0,0,1,2,0A35.03994,35.03994,0,0,1,81,120Z" style="fill:#99adbf"/><path d="M118,89a.99676.99676,0,0,1-.707-.293L115,86.41406l-2.293,2.293A.99989.99989,0,0,1,111.293,87.293l3-3a.99964.99964,0,0,1,1.41406,0l3,3A1,1,0,0,1,118,89Z" style="fill:#99adbf"/><path d="M81,120q-.51636,0-1.0293-.01514a.99994.99994,0,0,1,.05859-1.999q.4834.01392.9707.01416a1,1,0,0,1,0,2Z" style="fill:#99adbf"/><path d="M76.061,119.64355a1.04663,1.04663,0,0,1-.14551-.01025q-1.01147-.14722-2.00488-.35205a1.00023,1.00023,0,0,1,.40527-1.959q.93457.19336,1.8877.33154a1.00008,1.00008,0,0,1-.14258,1.98975Zm-5.76611-1.36279a.99738.99738,0,0,1-.31445-.05127q-.96973-.32153-1.91406-.69727a1,1,0,0,1,.73926-1.8584q.88989.35376,1.80371.65723a1.00028,1.00028,0,0,1-.31445,1.94971Zm-5.44043-2.35059a.99736.99736,0,0,1-.47461-.12012q-.89722-.48486-1.76221-1.02a1.00015,1.00015,0,0,1,1.05225-1.70117q.81519.50391,1.66113.96143a1.00005,1.00005,0,0,1-.47656,1.87988Zm-4.94531-3.26025a.99716.99716,0,0,1-.62061-.21631q-.79761-.63135-1.55762-1.30859a1.00016,1.00016,0,0,1,1.33105-1.49316q.71558.63867,1.46875,1.23438a1,1,0,0,1-.62158,1.78369Zm-4.30566-4.06445a.99753.99753,0,0,1-.74707-.335q-.676-.75879-1.30859-1.55713a1,1,0,0,1,1.56738-1.24219q.59692.75293,1.23438,1.46924a1,1,0,0,1-.74609,1.665Zm-3.53906-4.74561a.99928.99928,0,0,1-.85156-.47412q-.53394-.86279-1.01855-1.75879a1,1,0,0,1,1.75879-.95215q.457.84448.96094,1.65918a1,1,0,0,1-.84961,1.52588Zm-2.66309-5.28369a1.0013,1.0013,0,0,1-.92969-.63037q-.37427-.94116-.69629-1.9082a1.00026,1.00026,0,0,1,1.89844-.63086q.30249.91113.65625,1.79883a1.00086,1.00086,0,0,1-.92871,1.37061Zm-1.70068-5.66992a1.00011,1.00011,0,0,1-.97852-.79834q-.20435-.991-.35254-2.00293a.99983.99983,0,1,1,1.97852-.29q.14063.95435.333,1.88965a.99988.99988,0,0,1-.98047,1.20166Z" style="fill:#99adbf"/><path d="M47.01416,87a1.0003,1.0003,0,0,1-.999-.9707Q45.99976,85.5166,46,85a1,1,0,0,1,2,0q0,.48706.01416.9707a1,1,0,0,1-.97021,1.02881Z" style="fill:#99adbf"/><path d="M68.74658,41.791l-2.90875-.48474a22.88033,22.88033,0,0,0-.7052-3.55872L67.63208,36.188a1.5,1.5,0,0,0,.5918-1.84668l-.55817-1.34766a1.5,1.5,0,0,0-1.7243-.88721l-2.87018.66455a23.033,23.033,0,0,0-2.01874-3.01367l1.715-2.40112a1.4998,1.4998,0,0,0-.15991-1.93237l-1.03143-1.03149a1.5001,1.5001,0,0,0-1.9325-.15991l-2.40106,1.71509a23.036,23.036,0,0,0-3.01373-2.0188l.66473-2.87012a1.50032,1.50032,0,0,0-.88733-1.72437l-1.3476-.55811a1.50007,1.50007,0,0,0-1.84668.5918L49.2525,21.86743a22.88129,22.88129,0,0,0-3.55878-.70532l-.4848-2.90869A1.49992,1.49992,0,0,0,43.72931,17H42.27069a1.49992,1.49992,0,0,0-1.47961,1.25342l-.4848,2.90869a22.88129,22.88129,0,0,0-3.55878.70532L35.188,19.36792a1.50007,1.50007,0,0,0-1.84668-.5918l-1.3476.55811a1.50038,1.50038,0,0,0-.88733,1.72437l.66473,2.87012a23.036,23.036,0,0,0-3.01373,2.0188l-2.40106-1.71509a1.5001,1.5001,0,0,0-1.9325.15991L23.3924,25.42383a1.4998,1.4998,0,0,0-.15991,1.93237l1.715,2.40112A23.02646,23.02646,0,0,0,22.92883,32.771l-2.87024-.66455a1.5,1.5,0,0,0-1.7243.88721l-.55817,1.34766a1.5,1.5,0,0,0,.5918,1.84668l2.49951,1.55957a22.86612,22.86612,0,0,0-.7052,3.55872l-2.90881.48474A1.50006,1.50006,0,0,0,16,43.27075v1.4585a1.49984,1.49984,0,0,0,1.25342,1.47961l2.90881.48474a22.86483,22.86483,0,0,0,.7052,3.55884L18.36792,51.812a1.5,1.5,0,0,0-.5918,1.84668l.55817,1.34741a1.50025,1.50025,0,0,0,1.72424.88745l2.8703-.66467a23.01959,23.01959,0,0,0,2.01868,3.01379l-1.715,2.401a1.5,1.5,0,0,0,.15991,1.9325l1.03143,1.03149a1.50009,1.50009,0,0,0,1.9325.15979l2.40106-1.715a23.03114,23.03114,0,0,0,3.01373,2.01868l-.66473,2.87024a1.5,1.5,0,0,0,.88733,1.72412l1.34772.55823A1.49981,1.49981,0,0,0,35.188,68.632l1.55951-2.49939a22.8811,22.8811,0,0,0,3.55878.7052l.4848,2.90881A1.49992,1.49992,0,0,0,42.27069,71h1.45862a1.49992,1.49992,0,0,0,1.47961-1.25342l.4848-2.90881a22.8811,22.8811,0,0,0,3.55878-.7052L50.812,68.632a1.49987,1.49987,0,0,0,1.84662.5918l1.34766-.55823a1.49989,1.49989,0,0,0,.88733-1.72412l-.66473-2.87024a23.03114,23.03114,0,0,0,3.01373-2.01868l2.40106,1.715a1.50009,1.50009,0,0,0,1.9325-.15979l1.03143-1.03149a1.5,1.5,0,0,0,.15991-1.9325l-1.715-2.401a23.0261,23.0261,0,0,0,2.01874-3.01379l2.8703.66467a1.50017,1.50017,0,0,0,1.72418-.88745l.55817-1.34741a1.5,1.5,0,0,0-.5918-1.84668l-2.49945-1.55957a22.879,22.879,0,0,0,.7052-3.55884l2.90875-.48474A1.49984,1.49984,0,0,0,70,44.72925v-1.4585A1.50006,1.50006,0,0,0,68.74658,41.791ZM43,49a5,5,0,1,1,5-5A5.00009,5.00009,0,0,1,43,49Z" style="fill:#cee2ee"/><path d="M18.45046,36.11422l2.49537,1.566a22.9799,22.9799,0,0,0-.50819,2.26876,24.00182,24.00182,0,0,1,45.26962.11821,22.96027,22.96027,0,0,0-.49638-2.27126l2.50358-1.553a1.5,1.5,0,0,0,.59662-1.84513l-.55464-1.349a1.50021,1.50021,0,0,0-1.722-.89183l-2.872.65717a23.01828,23.01828,0,0,0-2.01079-3.01894l1.7213-2.39663a1.5,1.5,0,0,0-.15486-1.93291l-1.02873-1.03406a1.5,1.5,0,0,0-1.93207-.165l-2.40554,1.70874a23.02137,23.02137,0,0,0-3.00845-2.02661l.67223-2.86843a1.50018,1.50018,0,0,0-.88282-1.72662L52.78663,18.792a1.50014,1.50014,0,0,0-1.84822.587l-1.566,2.49543a22.87476,22.87476,0,0,0-3.557-.7145l-.4772-2.91007a1.49987,1.49987,0,0,0-1.47627-1.25722l-1.45861-.00381a1.5,1.5,0,0,0-1.48289,1.24948L40.428,21.1458a22.874,22.874,0,0,0-3.56061.6959l-1.553-2.50358a1.50014,1.50014,0,0,0-1.84513-.59662l-1.349.5547a1.50018,1.50018,0,0,0-.89183,1.722l.65723,2.87191a23.0132,23.0132,0,0,0-3.019,2.01085L26.47,24.17964a1.5,1.5,0,0,0-1.93291.15486l-1.03406,1.02867a1.5,1.5,0,0,0-.165,1.93207l1.70874,2.4056a23.0248,23.0248,0,0,0-2.02661,3.00838L20.15179,32.037a1.50018,1.50018,0,0,0-1.72662.88282L17.86343,34.266A1.50009,1.50009,0,0,0,18.45046,36.11422Z" style="fill:#fff"/><g style="opacity:0.2"><path d="M18.40957,51.75577l2.50352-1.553a22.9799,22.9799,0,0,1-.49632-2.27139,24.00182,24.00182,0,0,0,45.26962.11846,22.96028,22.96028,0,0,1-.50825,2.26864l2.49543,1.566a1.5,1.5,0,0,1,.587,1.84822l-.56169,1.34613a1.50021,1.50021,0,0,1-1.72662.88282l-2.86849-.67217a23.01829,23.01829,0,0,1-2.02655,3.00838l1.70874,2.4056a1.5,1.5,0,0,1-.165,1.93207l-1.03413,1.02867a1.5,1.5,0,0,1-1.93291.15486l-2.39657-1.7213a23.02137,23.02137,0,0,1-3.019,2.01085l.65723,2.87191a1.50018,1.50018,0,0,1-.89183,1.722l-1.349.5547a1.50014,1.50014,0,0,1-1.84513-.59662l-1.553-2.50358a22.87476,22.87476,0,0,1-3.56067.6959l-.4924,2.90754A1.49987,1.49987,0,0,1,43.72072,71.01l-1.45861-.00381A1.5,1.5,0,0,1,40.78577,69.749l-.4772-2.91007a22.874,22.874,0,0,1-3.55692-.7145l-1.566,2.49543a1.50014,1.50014,0,0,1-1.84822.587L31.99126,68.645a1.50018,1.50018,0,0,1-.88282-1.72662L31.78068,64.05a23.0132,23.0132,0,0,1-3.00845-2.02661l-2.4056,1.70874a1.5,1.5,0,0,1-1.93207-.165l-1.02867-1.03406a1.5,1.5,0,0,1-.15486-1.93291l1.7213-2.39663a23.0248,23.0248,0,0,1-2.01085-3.01894l-2.87191.65717a1.50018,1.50018,0,0,1-1.722-.89183l-.5547-1.349A1.50009,1.50009,0,0,1,18.40957,51.75577Z" style="fill:#2c4b75"/></g><g style="opacity:0.5"><path d="M50.48544,41,61.40189,30.14047c-.08576-.11332-.16241-.23358-.2502-.34526l1.7213-2.39663a1.5,1.5,0,0,0-.15486-1.93291l-.43313-.43534L49,38.24606Z" style="fill:#fff"/><path d="M37.18446,50,24.00154,63.11417l.43307.4354a1.5,1.5,0,0,0,1.93207.1649l2.4056-1.70868c.11122.08836.23107.1657.34395.252L40.433,51Z" style="fill:#fff"/><path d="M41,37h4.99891L57.196,25.86128a22.99672,22.99672,0,0,0-2.85268-1.91249l.67223-2.86843a1.50018,1.50018,0,0,0-.88282-1.72662L52.78663,18.792a1.50014,1.50014,0,0,0-1.84822.587l-1.566,2.49543a22.87476,22.87476,0,0,0-3.557-.7145l-.4772-2.91007a1.49987,1.49987,0,0,0-1.47627-1.25722l-1.45861-.00381a1.5,1.5,0,0,0-1.48289,1.24948L40.428,21.1458a22.874,22.874,0,0,0-3.56061.6959l-1.553-2.50358a1.50014,1.50014,0,0,0-1.84513-.59662l-1.349.5547a1.50018,1.50018,0,0,0-.89183,1.722l.65723,2.87191a23.0132,23.0132,0,0,0-3.019,2.01085L26.47,24.17964a1.5,1.5,0,0,0-1.93291.15486l-1.03406,1.02867a1.5,1.5,0,0,0-.165,1.93207l1.70874,2.4056a23.0248,23.0248,0,0,0-2.02661,3.00838L20.15179,32.037a1.50018,1.50018,0,0,0-1.72662.88282L17.86343,34.266a1.50009,1.50009,0,0,0,.587,1.84822l2.49537,1.566a22.8811,22.8811,0,0,0-.7145,3.55692l-2.91.4772A1.49993,1.49993,0,0,0,16.064,43.19071l-.00381,1.45861a1.49987,1.49987,0,0,0,1.24955,1.48282l2.90748.4924a22.88187,22.88187,0,0,0,.6959,3.56067l-2.50352,1.553a1.50009,1.50009,0,0,0-.59668,1.84513l.5547,1.34893a1.5,1.5,0,0,0,1.72186.89183l2.872-.65711a23.00126,23.00126,0,0,0,1.89755,2.86264L36,46.94677,37,40A30.82243,30.82243,0,0,1,41,37Z" style="fill:#fff"/></g><path d="M43,26A18,18,0,1,0,61,44,18.00011,18.00011,0,0,0,43,26Zm0,23a5,5,0,1,1,5-5A5.00009,5.00009,0,0,1,43,49Z" style="fill:#cee2ee"/><path d="M43.72949,72h-1.459a2.49188,2.49188,0,0,1-2.46582-2.08887l-.36328-2.17969c-.75-.11182-1.498-.25977-2.23633-.44287l-1.16895,1.87256A2.53374,2.53374,0,0,1,32.958,70.147l-1.34717-.55762a2.49346,2.49346,0,0,1-1.543-2.30908,2.51971,2.51971,0,0,1,.06445-.56543l.498-2.15039c-.64844-.39111-1.28125-.81543-1.89307-1.26855l-.2002.14307A1.00008,1.00008,0,1,1,27.375,61.811l.80127-.57227a.99941.99941,0,0,1,1.20068.0293,22.17408,22.17408,0,0,0,2.8833,1.93115.99919.99919,0,0,1,.48486,1.09766L32.08057,67.167a.51313.51313,0,0,0-.0127.11328.49851.49851,0,0,0,.30908.46143l1.34717.55811a.50187.50187,0,0,0,.61475-.19629l1.56055-2.5a.9997.9997,0,0,1,1.11914-.43311,21.9819,21.9819,0,0,0,3.40332.67432.99986.99986,0,0,1,.87061.82861l.48486,2.90869a.49846.49846,0,0,0,.49316.418h1.459a.49846.49846,0,0,0,.49316-.418l.48486-2.90869a.99986.99986,0,0,1,.87061-.82861,21.9819,21.9819,0,0,0,3.40332-.67432.99818.99818,0,0,1,1.11914.43311l1.55957,2.499a.50385.50385,0,0,0,.61523.19775l1.34814-.55859a.49739.49739,0,0,0,.30859-.46094.50728.50728,0,0,0-.01367-.1167l-.66357-2.86719a.99919.99919,0,0,1,.48486-1.09766,22.17408,22.17408,0,0,0,2.8833-1.93115.99935.99935,0,0,1,1.20068-.0293l2.40088,1.71484a.43471.43471,0,0,0,.645-.05322l1.03076-1.03125a.50046.50046,0,0,0,.05371-.644l-1.71533-2.40137a1.0008,1.0008,0,0,1,.0293-1.20117,22.08586,22.08586,0,0,0,1.93115-2.88281.99586.99586,0,0,1,1.09766-.48486l2.87012.66455a.511.511,0,0,0,.57471-.29639l.55811-1.34717a.49769.49769,0,0,0-.19629-.61475l-2.5-1.56055a.99917.99917,0,0,1-.43311-1.11914,21.9819,21.9819,0,0,0,.67432-3.40332.99986.99986,0,0,1,.82861-.87061l2.90869-.48486A.49884.49884,0,0,0,69,44.72949V43.271a.499.499,0,0,0-.418-.49365l-2.90869-.48486a.99986.99986,0,0,1-.82861-.87061,22.01662,22.01662,0,0,0-.67432-3.40332.99917.99917,0,0,1,.43311-1.11914l2.499-1.55957a.4986.4986,0,0,0,.23584-.4248.48629.48629,0,0,0-.03809-.18945l-.55859-1.34912a.50409.50409,0,0,0-.57666-.29541l-2.86816.66406a1.00023,1.00023,0,0,1-1.09766-.48486,22.17408,22.17408,0,0,0-1.93115-2.8833,1.00007,1.00007,0,0,1-.0293-1.20068l1.71484-2.40088a.4986.4986,0,0,0-.05322-.64453l-1.03125-1.03125a.43543.43543,0,0,0-.644-.05371l-2.40088,1.71533a1.00223,1.00223,0,0,1-1.20166-.02881,22.10657,22.10657,0,0,0-2.88281-1.93164.99919.99919,0,0,1-.48486-1.09766l.66455-2.87012a.51313.51313,0,0,0,.0127-.11328.49851.49851,0,0,0-.30908-.46143l-1.34717-.55811a.50081.50081,0,0,0-.61523.19678l-1.55957,2.5a1.00133,1.00133,0,0,1-1.12012.43311,21.97336,21.97336,0,0,0-3.40332-.6748.99986.99986,0,0,1-.87012-.82861L44.22266,18.418A.49884.49884,0,0,0,43.72949,18h-1.459a.49884.49884,0,0,0-.49316.418l-.48486,2.90869a.99986.99986,0,0,1-.87012.82861,21.97336,21.97336,0,0,0-3.40332.6748,1.00148,1.00148,0,0,1-1.12012-.43311l-1.55957-2.49951a.50218.50218,0,0,0-.61572-.19678l-1.34717.55762a.49806.49806,0,0,0-.30859.46143.51515.51515,0,0,0,.01318.11523l.66406,2.86816a.99919.99919,0,0,1-.48486,1.09766,22.10657,22.10657,0,0,0-2.88281,1.93164,1.00231,1.00231,0,0,1-1.20166.02881L25.7749,25.0459a.43221.43221,0,0,0-.644.05371l-1.03125,1.03125a.50046.50046,0,0,0-.05371.644l1.71533,2.40137a1.00007,1.00007,0,0,1-.0293,1.20068,22.17408,22.17408,0,0,0-1.93115,2.8833,1.00015,1.00015,0,0,1-1.09766.48486L20.562,33.24951a.9999.9999,0,1,1,.45117-1.94824l1.42236.3291c.39111-.64844.81543-1.28125,1.26855-1.89307l-1.28564-1.7998a2.50016,2.50016,0,0,1,.26709-3.2207l1.03125-1.03125a2.54622,2.54622,0,0,1,3.22119-.2666L28.7373,24.7041c.61133-.45264,1.24463-.877,1.89307-1.26855l-.498-2.15137a2.5002,2.5002,0,0,1,1.478-2.87354l1.34814-.55811a2.53487,2.53487,0,0,1,3.07764.98633l1.16895,1.873c.73682-.18262,1.48486-.33105,2.23633-.44336l.36328-2.17969A2.49188,2.49188,0,0,1,42.27051,16h1.459a2.49188,2.49188,0,0,1,2.46582,2.08887l.36328,2.17969c.75146.1123,1.49951.26074,2.23633.44336l1.16846-1.873A2.53658,2.53658,0,0,1,53.043,17.853l1.34619.55762a2.49346,2.49346,0,0,1,1.543,2.30908,2.51971,2.51971,0,0,1-.06445.56543l-.498,2.15039c.64844.3916,1.28174.81592,1.89307,1.26855L59.062,23.41895a2.54823,2.54823,0,0,1,3.22119.2666l1.03125,1.03125a2.4983,2.4983,0,0,1,.2666,3.22119L62.2959,29.7373c.45313.61182.87744,1.24463,1.26855,1.89307l2.15137-.498a2.51707,2.51707,0,0,1,2.87354,1.478l.55811,1.34814a2.49741,2.49741,0,0,1-.98633,3.07764l-1.87256,1.16895c.18262.73828.33105,1.48633.44287,2.23633l2.17969.36328A2.49239,2.49239,0,0,1,71,43.271v1.4585a2.49188,2.49188,0,0,1-2.08887,2.46582l-2.17969.36328c-.11182.75-.25977,1.498-.44287,2.23633l1.87256,1.16895A2.4965,2.4965,0,0,1,69.147,54.042l-.55762,1.34717a2.53943,2.53943,0,0,1-2.87451,1.47852l-2.15039-.498c-.3916.64893-.81592,1.28223-1.26855,1.89355l1.28564,1.79932a2.50016,2.50016,0,0,1-.26709,3.2207l-1.03076,1.03174a2.55145,2.55145,0,0,1-3.22119.2666L57.2627,63.2959c-.61182.45313-1.24463.87744-1.89307,1.26855l.498,2.15137a2.5323,2.5323,0,0,1,.06445.56494,2.49075,2.49075,0,0,1-1.54346,2.30859l-1.34717.55811a2.53572,2.53572,0,0,1-3.07764-.98633l-1.16895-1.87256c-.73828.18311-1.48633.33105-2.23633.44287l-.36328,2.17969A2.49188,2.49188,0,0,1,43.72949,72ZM24.43994,64.64746a.93749.93749,0,0,1-.63916-.252c-.01025-.00977-.07422-.07031-.084-.08057L22.68506,63.2832a2.499,2.499,0,0,1-.26611-3.22119l1.28516-1.79883c-.45264-.61133-.877-1.24463-1.26855-1.89355l-2.15137.498a2.51074,2.51074,0,0,1-2.87354-1.479l-.55811-1.34717a2.49741,2.49741,0,0,1,.98633-3.07764l1.87256-1.16895c-.18311-.73828-.33105-1.48633-.44287-2.23633l-2.17969-.36328A2.49188,2.49188,0,0,1,15,44.72949V43.271a2.49239,2.49239,0,0,1,2.08887-2.46631l2.17969-.36328c.1167-.7832.27295-1.564.46631-2.33008a1.00011,1.00011,0,0,1,1.93945.48926,21.96235,21.96235,0,0,0-.519,2.82129.99986.99986,0,0,1-.82861.87061l-2.90869.48486A.499.499,0,0,0,17,43.271v1.4585a.49884.49884,0,0,0,.418.49316l2.90869.48486a.99986.99986,0,0,1,.82861.87061,21.9819,21.9819,0,0,0,.67432,3.40332.99917.99917,0,0,1-.43311,1.11914l-2.499,1.55957a.49908.49908,0,0,0-.19775.61523l.55859,1.34814a.49535.49535,0,0,0,.57764.29492l2.86719-.66357a.99607.99607,0,0,1,1.09766.48486,22.08586,22.08586,0,0,0,1.93115,2.88281,1.0008,1.0008,0,0,1,.0293,1.20117l-1.71484,2.40088a.4986.4986,0,0,0,.05322.64453l1.03125,1.03174a1.03248,1.03248,0,0,1,.0415,1.4248A1.01772,1.01772,0,0,1,24.43994,64.64746ZM18.04443,36.916a.99822.99822,0,0,1-.74561-.333,2.49707,2.49707,0,0,1-.4458-2.625l.12012-.29053a1,1,0,1,1,1.84766.76563l-.12061.291a.49281.49281,0,0,0-.03857.19141.49954.49954,0,0,0,.12744.3335,1,1,0,0,1-.74463,1.667Z" style="fill:#647fa1"/><path d="M43,29A17.99183,17.99183,0,0,0,25.07574,45.5C25.03473,45.00415,25,44.50635,25,44a18,18,0,0,1,36,0c0,.50635-.03473,1.00415-.07574,1.5A17.99179,17.99179,0,0,0,43,29Z" style="fill:#7690a8;opacity:0.30000000000000004"/><path d="M56,45.79309V42.20685L52.91638,41.179a10.24576,10.24576,0,0,0-.90967-2.19647l1.45361-2.90692-2.53589-2.53589-2.907,1.45361A10.24252,10.24252,0,0,0,45.821,34.0835L44.79315,31h-3.5863L40.179,34.0835a10.243,10.243,0,0,0-2.19647.90979l-2.907-1.45361-2.53589,2.53589,1.45361,2.90692a10.24266,10.24266,0,0,0-.90967,2.19647L30,42.20685v3.58624L33.08362,46.821a10.24573,10.24573,0,0,0,.90967,2.19653l-1.45361,2.90686,2.53589,2.53589,2.907-1.45361a10.23973,10.23973,0,0,0,2.19647.90973L41.20685,57h3.5863L45.821,53.91638a10.23924,10.23924,0,0,0,2.19641-.90973l2.907,1.45361,2.53589-2.53589-1.45361-2.90686a10.24884,10.24884,0,0,0,.90967-2.19653ZM43,49a5,5,0,1,1,5-5A5.00009,5.00009,0,0,1,43,49Z" style="fill:#eef6ff"/><path d="M56,45.79313V42.20687l-3.08361-1.02792a10.24818,10.24818,0,0,0-.90966-2.19645l1.45361-2.90691L50.92445,33.5397l-2.907,1.45361a10.24079,10.24079,0,0,0-2.19645-.90978L44.79313,31H41.20687L40.179,34.08353a10.24111,10.24111,0,0,0-2.19649.90978l-2.907-1.45361-2.53589,2.53589,1.45361,2.90691a10.24413,10.24413,0,0,0-.90966,2.19645L30,42.20687v3.58627L33.08361,46.821a10.24477,10.24477,0,0,0,.90966,2.19653l-1.45361,2.90691,2.53589,2.53589,2.907-1.45361a10.24087,10.24087,0,0,0,2.19649.9097L41.20687,57h3.58627L45.821,53.91639a10.24055,10.24055,0,0,0,2.19645-.9097l2.907,1.45361,2.53589-2.53589L52.00673,49.0175a10.24882,10.24882,0,0,0,.90966-2.19653ZM43,49a5,5,0,1,1,5-5A5.00005,5.00005,0,0,1,43,49Z" style="fill:none"/><path d="M44.75,36a14.16605,14.16605,0,0,1,7.63275,2.23041l1.07758-2.15485-2.53589-2.53589-2.907,1.45361A10.24252,10.24252,0,0,0,45.821,34.0835L44.79315,31h-3.5863L40.179,34.0835a10.243,10.243,0,0,0-2.19647.90979l-2.907-1.45361-2.53589,2.53589,1.45361,2.90692a10.24266,10.24266,0,0,0-.90967,2.19647L30,42.20685v3.58624l1.10254.36749A14.25088,14.25088,0,0,1,44.75,36Z" style="fill:#fff"/><path d="M56,45.79309V42.20685L52.91638,41.179a10.24576,10.24576,0,0,0-.90967-2.19647l1.45361-2.90692-2.53589-2.53589-2.907,1.45361A10.24252,10.24252,0,0,0,45.821,34.0835L44.79315,31h-3.5863L40.179,34.0835a10.243,10.243,0,0,0-2.19647.90979l-2.907-1.45361-2.53589,2.53589,1.45361,2.90692a10.24266,10.24266,0,0,0-.90967,2.19647L30,42.20685v3.58624L33.08362,46.821a10.24573,10.24573,0,0,0,.90967,2.19653l-1.45361,2.90686,2.53589,2.53589,2.907-1.45361a10.23973,10.23973,0,0,0,2.19647.90973L41.20685,57h3.5863L45.821,53.91638a10.23924,10.23924,0,0,0,2.19641-.90973l2.907,1.45361,2.53589-2.53589-1.45361-2.90686a10.24884,10.24884,0,0,0,.90967-2.19653ZM43,49a5,5,0,1,1,5-5A5.00009,5.00009,0,0,1,43,49Z" style="fill:none"/><path d="M44.793,58H41.207a1,1,0,0,1-.94873-.68359l-.86572-2.59717a11.37292,11.37292,0,0,1-1.42187-.58838L35.52295,55.355a1.00046,1.00046,0,0,1-1.1543-.1875l-2.53613-2.53613a.99968.99968,0,0,1-.1875-1.1543l1.22412-2.44775a11.37292,11.37292,0,0,1-.58838-1.42187l-2.59717-.86572A1,1,0,0,1,29,45.793V42.207a1.00043,1.00043,0,0,1,.68359-.94873l2.59717-.86621a11.33582,11.33582,0,0,1,.58838-1.42139L31.645,36.52295a.99968.99968,0,0,1,.1875-1.1543l2.53613-2.53613a1.00021,1.00021,0,0,1,1.1543-.1875l2.44775,1.22412a11.37292,11.37292,0,0,1,1.42188-.58838l.86572-2.59717A1,1,0,0,1,41.207,30H44.793a1,1,0,0,1,.94873.68359l.86572,2.59717a11.37292,11.37292,0,0,1,1.42188.58838L50.47705,32.645a1.001,1.001,0,0,1,1.1543.1875l2.53613,2.53613a.99968.99968,0,0,1,.1875,1.1543L53.13086,38.9707a11.33582,11.33582,0,0,1,.58838,1.42139l2.59717.86621A1.00043,1.00043,0,0,1,57,42.207V45.793a1,1,0,0,1-.68359.94873l-2.59717.86572a11.37292,11.37292,0,0,1-.58838,1.42188L54.355,51.47705a.99968.99968,0,0,1-.1875,1.1543l-.61719.61719a.99989.99989,0,0,1-1.41406-1.41406l.10742-.10742L51.1123,49.46484a.99876.99876,0,0,1,.02148-.93457,9.29386,9.29386,0,0,0,.8208-1.98291,1.00009,1.00009,0,0,1,.64551-.67529L55,45.07227V42.92773l-2.3999-.80029a1.00009,1.00009,0,0,1-.64551-.67529,9.27955,9.27955,0,0,0-.8208-1.98242.99876.99876,0,0,1-.02148-.93457l1.13135-2.26221-1.5166-1.5166L48.46484,35.8877a.9974.9974,0,0,1-.93457-.02148,9.29386,9.29386,0,0,0-1.98291-.8208,1.00009,1.00009,0,0,1-.67529-.64551L44.07227,32H41.92773l-.7998,2.3999a1.00009,1.00009,0,0,1-.67529.64551,9.29386,9.29386,0,0,0-1.98291.8208.99734.99734,0,0,1-.93457.02148l-2.26221-1.13135-1.5166,1.5166,1.13135,2.26221a.99876.99876,0,0,1-.02148.93457,9.27955,9.27955,0,0,0-.8208,1.98242,1.00009,1.00009,0,0,1-.64551.67529L31,42.92773v2.14453l2.3999.7998a1.00009,1.00009,0,0,1,.64551.67529,9.29386,9.29386,0,0,0,.8208,1.98291.99876.99876,0,0,1,.02148.93457l-1.13135,2.26221,1.5166,1.5166,2.26221-1.13135a1.00292,1.00292,0,0,1,.93457.02148,9.29386,9.29386,0,0,0,1.98291.8208,1.00009,1.00009,0,0,1,.67529.64551L41.92773,56h2.14453l.27734-.832a1.0001,1.0001,0,1,1,1.89746.63281l-.50537,1.51563A1.00043,1.00043,0,0,1,44.793,58Zm4.98047-3.11475a.99608.99608,0,0,1-.44629-.10547L47.686,53.959a.99375.99375,0,0,1-.1958-1.80273l.04834-.02734a1.00308,1.00308,0,0,1,.92627-.0166l1.75684.87842a1,1,0,0,1-.44824,1.89453ZM43,50a6,6,0,1,1,6-6A6.00656,6.00656,0,0,1,43,50Zm0-10a4,4,0,1,0,4,4A4.00458,4.00458,0,0,0,43,40Z" style="fill:#647fa1"/></svg>