<?xml version="1.0" ?><svg height="128" id="STROKE_8" viewBox="0 0 128 128" width="128" xmlns="http://www.w3.org/2000/svg"><title/><circle cx="64" cy="64" r="55" style="fill:#abdbf5;opacity:0.3"/><path d="M105.38587,56.61483A20.6415,20.6415,0,0,0,74.68367,33.7595,27.12475,27.12475,0,0,0,26.07229,47.32334a19.36328,19.36328,0,0,0,6.31662,37.67611L104.78146,85a14.19861,14.19861,0,0,0,.6044-28.38517Z" style="fill:#fff"/><path d="M104.78146,79.833l-72.39255-.00055A19.37346,19.37346,0,0,1,13.1884,63.017a19.29185,19.29185,0,0,0,19.20052,21.9824L104.78146,85a14.17585,14.17585,0,0,0,13.97365-16.79952A14.21127,14.21127,0,0,1,104.78146,79.833Z" style="fill:#4b95b8;opacity:0.2"/><path d="M26.07229,52.49035c1.403-13.664,12.96343-24.80086,27.00019-24.32331,9.47737.32244,16.04806,3.44385,19.71385,7.43617,3.12616-1.89715,12.70047-.76733,18.25116,1.50613s13.59171,6.70758,14.85867,16.90756a19.69393,19.69393,0,0,0,.17593-2.60106A20.65272,20.65272,0,0,0,74.68367,33.75947,27.12475,27.12475,0,0,0,26.07229,47.32331,19.17292,19.17292,0,0,0,13.1884,68.184,19.383,19.383,0,0,1,26.07229,52.49035Z" style="fill:#fff"/><path d="M96.97753,58.914c9.38588-.98635,20.592,8.04257,21.77759,14.45338a14.12168,14.12168,0,0,0-12.68626-16.69025C103.69744,56.67716,99.01788,57.4505,96.97753,58.914Z" style="fill:#fff"/><path d="M32.86719,85.99951a21.22394,21.22394,0,0,1-14.92383-6.25635A19.94342,19.94342,0,0,1,12,65.52734a20.20314,20.20314,0,0,1,5.92871-14.24658,5.09766,5.09766,0,0,0,1.46875-3.979l-.06152-.80957a.99994.99994,0,0,1,1.99414-.15137l.06152.811a7.09415,7.09415,0,0,1-2.0459,5.54A18.22118,18.22118,0,0,0,14,65.53711,17.95673,17.95673,0,0,0,19.36035,78.332a19.21381,19.21381,0,0,0,13.50684,5.66748,1,1,0,0,1,0,2Z" style="fill:#99adbf"/><path d="M26.07324,48.32324a.9308.9308,0,0,1-.10352-.00537,1.00057,1.00057,0,0,1-.89258-1.09668A28.27562,28.27562,0,0,1,47.75,22.50244a1.00015,1.00015,0,1,1,.375,1.96484,26.26032,26.26032,0,0,0-21.05762,22.958A1.00031,1.00031,0,0,1,26.07324,48.32324Z" style="fill:#99adbf"/><path d="M119,71.792a.99974.99974,0,0,1-1-1,13.17042,13.17042,0,0,0-12.65625-13.17822,1,1,0,0,1-.92578-1.25049,19.64188,19.64188,0,0,0-29.21582-21.749.99995.99995,0,0,1-1.03711-1.71A21.65323,21.65323,0,0,1,107.07227,51.416a21.33643,21.33643,0,0,1-.44922,4.2959A15.162,15.162,0,0,1,120,70.792.99974.99974,0,0,1,119,71.792Z" style="fill:#99adbf"/><path d="M89.25,88.584a1.00089,1.00089,0,0,1-.94238-1.335A4.89087,4.89087,0,0,1,92.9082,84h11.873a13.14811,13.14811,0,0,0,12.64063-9.33105,1.00008,1.00008,0,0,1,1.91211.58691A15.13776,15.13776,0,0,1,104.78125,86H92.9082a2.88788,2.88788,0,0,0-2.71582,1.918A1.00123,1.00123,0,0,1,89.25,88.584Z" style="fill:#99adbf"/><path d="M27.25293,59.519a1.00086,1.00086,0,0,1-.95117-.69092,28.07479,28.07479,0,0,1-1.374-8.7041,28.37108,28.37108,0,0,1,.18555-3.23828.99971.99971,0,1,1,1.98633.22852,26.38543,26.38543,0,0,0-.17187,3.00977,26.08274,26.08274,0,0,0,1.27637,8.085,1.0021,1.0021,0,0,1-.95117,1.31006Z" style="fill:#99adbf"/><path d="M95.415,61.10205a1.00044,1.00044,0,0,1-.65918-1.75244,15.21541,15.21541,0,0,1,10.02539-3.76514,1,1,0,0,1,0,2,13.20945,13.20945,0,0,0-8.707,3.27A.999.999,0,0,1,95.415,61.10205Z" style="fill:#99adbf"/><path d="M68.57324,40.38281a1.00021,1.00021,0,0,1-.81152-1.5835,21.93982,21.93982,0,0,1,6.73242-6.11816A.99994.99994,0,0,1,75.5,34.40967a19.913,19.913,0,0,0-6.11328,5.55664A.99868.99868,0,0,1,68.57324,40.38281Z" style="fill:#99adbf"/><circle cx="64" cy="85" r="21" style="fill:#7fd4e3"/><path d="M64,102.85A20.987,20.987,0,0,1,43.07947,83.425C43.04076,83.9468,43,84.46827,43,85a21,21,0,0,0,42,0c0-.53173-.04076-1.0532-.07947-1.575A20.987,20.987,0,0,1,64,102.85Z" style="fill:#2c4b75;opacity:0.2"/><path d="M64,67.15A20.987,20.987,0,0,1,84.92053,86.575C84.95924,86.0532,85,85.53173,85,85a21,21,0,0,0-42,0c0,.53173.04076,1.0532.07947,1.575A20.987,20.987,0,0,1,64,67.15Z" style="fill:#fff;opacity:0.5"/><path d="M62.48535,106.9458c-.02344,0-.04785-.001-.07227-.00244A22.06817,22.06817,0,0,1,41.999,84.999c0-.751.03809-1.51025.11328-2.25684a21.5527,21.5527,0,0,1,1.66992-6.4248,1.00032,1.00032,0,0,1,1.83594.79492,19.51919,19.51919,0,0,0-1.51562,5.8291c-.06836.68164-.10352,1.37354-.10352,2.05762a20.06156,20.06156,0,0,0,18.55664,19.94922,1.00007,1.00007,0,0,1-.07031,1.99756Zm3.99023-.08789a1.00012,1.00012,0,0,1-.11328-1.99365,19.5169,19.5169,0,0,0,3.71191-.7998.99971.99971,0,1,1,.60938,1.9043,21.53931,21.53931,0,0,1-4.09277.88281A1.02512,1.02512,0,0,1,66.47559,106.85791Zm7.57227-2.41895a.99985.99985,0,0,1-.48242-1.87646A19.97192,19.97192,0,0,0,83.91895,86.82666C83.97266,86.21533,84,85.60059,84,85.00049a19.9543,19.9543,0,0,0-2.94922-10.46,8.66285,8.66285,0,0,1-1.08887-6.44629.9997.9997,0,1,1,1.95117.43652,6.67148,6.67148,0,0,0,.84082,4.96191A21.95182,21.95182,0,0,1,86,85.00049c0,.65869-.03027,1.332-.08887,2.002a21.96882,21.96882,0,0,1-11.38281,17.313A.99473.99473,0,0,1,74.04785,104.439ZM46.62793,74.21777a1.00065,1.00065,0,0,1-.8252-1.564A21.91819,21.91819,0,0,1,62.127,63.07764a1,1,0,1,1,.166,1.99316,19.92417,19.92417,0,0,0-14.83789,8.71094A1.00013,1.00013,0,0,1,46.62793,74.21777Z" style="fill:#647fa1"/><path d="M64,98A13.01474,13.01474,0,0,1,51,85a1,1,0,0,1,2,0,10.99878,10.99878,0,1,0,2.2002-6.60107l-.16016.2085a.99966.99966,0,1,1-1.58789-1.21484l.1543-.20166A13.00012,13.00012,0,1,1,64,98Z" style="fill:#fff"/><path d="M59,79H54a.99974.99974,0,0,1-1-1V73a1,1,0,0,1,2,0v4h4a1,1,0,0,1,0,2Z" style="fill:#fff"/><path d="M69.34375,89.81738a.9957.9957,0,0,1-.58008-.186L63.41895,85.814A1.00152,1.00152,0,0,1,63,85V78a1,1,0,0,1,2,0v6.48535l4.92578,3.51807a1.0002,1.0002,0,0,1-.582,1.814Z" style="fill:#fff"/><path d="M64,87a2,2,0,1,1,2-2A2.00229,2.00229,0,0,1,64,87Zm0-2.00146v0Z" style="fill:#fff"/><g style="opacity:0.65"><path d="M74,6a.99974.99974,0,0,1-1-1V4a1,1,0,0,1,2,0V5A.99974.99974,0,0,1,74,6Z" style="fill:#6e85a1"/><path d="M74,13a.99974.99974,0,0,1-1-1V11a1,1,0,0,1,2,0v1A.99974.99974,0,0,1,74,13Z" style="fill:#6e85a1"/><path d="M71,9H70a1,1,0,0,1,0-2h1a1,1,0,0,1,0,2Z" style="fill:#6e85a1"/><path d="M78,9H77a1,1,0,0,1,0-2h1a1,1,0,0,1,0,2Z" style="fill:#6e85a1"/><path d="M104,101a.99974.99974,0,0,1-1-1V99a1,1,0,0,1,2,0v1A.99974.99974,0,0,1,104,101Z" style="fill:#6e85a1"/><path d="M104,106a.99974.99974,0,0,1-1-1v-1a1,1,0,0,1,2,0v1A.99974.99974,0,0,1,104,106Z" style="fill:#6e85a1"/><path d="M102,103h-1a1,1,0,0,1,0-2h1a1,1,0,0,1,0,2Z" style="fill:#6e85a1"/><path d="M107,103h-1a1,1,0,0,1,0-2h1a1,1,0,0,1,0,2Z" style="fill:#6e85a1"/><path d="M23.03418,24h-8.207a3.88062,3.88062,0,0,1-1.92383-7.25977,2.93036,2.93036,0,0,1,3.6543-2.33008A4.61288,4.61288,0,0,1,24.9707,17.501a1.0003,1.0003,0,0,1-1.98828-.22168A2.55794,2.55794,0,0,0,23,16.99072a2.621,2.621,0,0,0-5.07227-.9126.99915.99915,0,0,1-1.55566.43115.93158.93158,0,0,0-1.50977.72168,1.11663,1.11663,0,0,1-.66211,1.1084A1.8815,1.8815,0,0,0,14.82715,22h8.207a1.89281,1.89281,0,0,0,1.89648-1.88477l-.00391-.127a.99976.99976,0,1,1,1.99414-.14648c.00684.09082.00977.18115.00977.27344A3.89509,3.89509,0,0,1,23.03418,24Z" style="fill:#6e85a1"/><path d="M111.835,32.62646h-2.55957a3.264,3.264,0,0,1-1.74609-6.02881,3.84437,3.84437,0,0,1,6.92578-1.9624,2.5371,2.5371,0,0,1,1.72852.26025,1.00008,1.00008,0,1,1-.9668,1.751.57441.57441,0,0,0-.57227.04785.9998.9998,0,0,1-1.55664-.43066,1.84489,1.84489,0,0,0-3.57031.64111,1.88892,1.88892,0,0,0,.0127.21094,1.00037,1.00037,0,0,1-.6709,1.04883,1.26428,1.26428,0,0,0,.416,2.46191H111.835a1,1,0,1,1,0,2Zm3.999-.00244a1.00008,1.00008,0,0,1-.04687-1.999A1.26771,1.26771,0,0,0,117,29.35986a1.23389,1.23389,0,0,0-.03613-.29932,1.00024,1.00024,0,0,1,1.94336-.47461,3.26748,3.26748,0,0,1-3.02441,4.03711Z" style="fill:#6e85a1"/><path d="M36,116H31.499a1,1,0,0,1,0-2H36a2,2,0,0,0,0-4,1.05382,1.05382,0,0,1-1.041-.85742A2.50332,2.50332,0,0,0,32.5,107a2.4737,2.4737,0,0,0-2.45605,2.126,1.00033,1.00033,0,0,1-1.97852-.29687A4.46314,4.46314,0,0,1,32.5,105a4.51592,4.51592,0,0,1,4.25391,3.07813A3.99648,3.99648,0,0,1,36,116Zm-8.44043-.36719a.99591.99591,0,0,1-.47949-.123,4.00561,4.00561,0,0,1-1.94434-4.54639.99989.99989,0,0,1,1.93164.51758,2.00695,2.00695,0,0,0,.97363,2.2749,1,1,0,0,1-.48145,1.877Z" style="fill:#6e85a1"/></g></svg>