<?xml version="1.0" ?><svg height="128" id="STROKE_8" viewBox="0 0 128 128" width="128" xmlns="http://www.w3.org/2000/svg"><title/><circle cx="64" cy="64" r="55" style="fill:#abdbf5;opacity:0.3"/><path d="M99,26v87.99841H19.00006a4,4,0,0,1-4-4V26Z" style="fill:#fff"/><path d="M19,113.99841H99v-4H15A4,4,0,0,0,19,113.99841Z" style="fill:#7690a8;opacity:0.15"/><path d="M99,18v8H15.00006V18a4.01176,4.01176,0,0,1,4-4H95A4.01176,4.01176,0,0,1,99,18Z" style="fill:#deeef7"/><path d="M95,14H19a4.01178,4.01178,0,0,0-4,4v3a4.01178,4.01178,0,0,1,4-4H95a4.01174,4.01174,0,0,1,4,4V18A4.01174,4.01174,0,0,0,95,14Z" style="fill:#fff;opacity:0.4"/><path d="M99,84a1,1,0,0,1-1-1V70.03564a9.4721,9.4721,0,0,1,2.793-6.74268A.99989.99989,0,0,1,102.207,64.707,7.48661,7.48661,0,0,0,100,70.03564V83A1,1,0,0,1,99,84Z" style="fill:#8699b0"/><path d="M11.99951,74.81787a1,1,0,0,1-.74268-1.66895A10.6709,10.6709,0,0,0,14,66V18a5.00589,5.00589,0,0,1,5-5H36.15381a1,1,0,0,1,0,2H19a3.00328,3.00328,0,0,0-3,3V66a12.66822,12.66822,0,0,1-3.25684,8.48682A.99736.99736,0,0,1,11.99951,74.81787ZM99,36.75a1,1,0,0,1-1-1V18a3.00328,3.00328,0,0,0-3-3H92.15381a1,1,0,0,1,0-2H95a5.00589,5.00589,0,0,1,5,5V35.75A1,1,0,0,1,99,36.75ZM88.15381,15h-40a1,1,0,0,1,0-2h40a1,1,0,0,1,0,2Zm-44,0h-4a1,1,0,0,1,0-2h4a1,1,0,0,1,0,2Z" style="fill:#8699b0"/><path d="M99,114.99854H19a1,1,0,1,1,0-2H99a1,1,0,0,1,0,2Zm-83.36426-1.8374a.99819.99819,0,0,1-.8418-.459A4.98564,4.98564,0,0,1,14,109.999v-1.71484a1,1,0,0,1,2,0v1.71436a2.99707,2.99707,0,0,0,.47559,1.62158.99975.99975,0,0,1-.83984,1.541ZM15,105.28418a1,1,0,0,1-1-1V92.3335a1,1,0,0,1,2,0v11.95068A1,1,0,0,1,15,105.28418Z" style="fill:#8699b0"/><rect height="4" rx="2" ry="2" style="fill:#deeef7" width="47.00004" x="47.9998" y="18"/><circle cx="20.9999" cy="20" r="2" style="fill:#ff8585"/><circle cx="28.9999" cy="20" r="2" style="fill:#ffd180"/><circle cx="36.9999" cy="20" r="2" style="fill:#89dbd7"/><rect height="10" style="fill:#cee2ee" width="20" x="21" y="84"/><rect height="10" style="fill:#cee2ee" width="20" x="47" y="84"/><rect height="10" style="fill:#cee2ee" width="20" x="73" y="84"/><rect height="38" style="fill:#b3e1e8" width="72" x="21" y="38"/><g style="opacity:0.5"><path d="M32,33H21a1,1,0,0,1,0-2H32a1,1,0,0,1,0,2Z" style="fill:#8699b0"/><path d="M93,33H89a1,1,0,0,1,0-2h4a1,1,0,0,1,0,2Z" style="fill:#8699b0"/><path d="M85,33H81a1,1,0,0,1,0-2h4a1,1,0,0,1,0,2Z" style="fill:#8699b0"/><path d="M83,33H79a1,1,0,0,1,0-2h4a1,1,0,0,1,0,2Z" style="fill:#8699b0"/><path d="M75.25,33h-4a1,1,0,0,1,0-2h4a1,1,0,0,1,0,2Z" style="fill:#8699b0"/><path d="M54,81a1.24729,1.24729,0,0,1-.18994-.02,1.07362,1.07362,0,0,1-.19043-.06006.923.923,0,0,1-.16992-.09033.95664.95664,0,0,1-.15967-.12988.9848.9848,0,0,1-.21045-.31982A.999.999,0,0,1,53,80a1.08961,1.08961,0,0,1,.07959-.39014A.9848.9848,0,0,1,53.29,79.29a.59415.59415,0,0,1,.15967-.12012.95965.95965,0,0,1,.16992-.1001,1.0335,1.0335,0,0,1,.19043-.0498.84689.84689,0,0,1,.38965,0,1.18026,1.18026,0,0,1,.18018.0498,1.581,1.581,0,0,1,.18018.1001A.78437.78437,0,0,1,54.71,79.29a.99143.99143,0,0,1,.21.31982A1.09039,1.09039,0,0,1,55,80a1.03882,1.03882,0,0,1-.29.69971,1.68159,1.68159,0,0,1-.1499.12988,1.47854,1.47854,0,0,1-.18018.09033,1.29935,1.29935,0,0,1-.18018.06006A1.38371,1.38371,0,0,1,54,81Z" style="fill:#8699b0"/><path d="M57,81a1.03515,1.03515,0,0,1-.71-.30029.9848.9848,0,0,1-.21045-.31982A.999.999,0,0,1,56,80a1.08961,1.08961,0,0,1,.07959-.39014A.9848.9848,0,0,1,56.29,79.29a1.17683,1.17683,0,0,1,.32959-.22021.99991.99991,0,0,1,.76025,0A1.17912,1.17912,0,0,1,57.71,79.29a.99143.99143,0,0,1,.21.31982A1.09039,1.09039,0,0,1,58,80a1.01585,1.01585,0,0,1-1,1Z" style="fill:#8699b0"/><path d="M60,81a1.03515,1.03515,0,0,1-.71-.30029.9848.9848,0,0,1-.21045-.31982A.999.999,0,0,1,59,80a1.08961,1.08961,0,0,1,.07959-.39014A.9848.9848,0,0,1,59.29,79.29a1.17683,1.17683,0,0,1,.32959-.22021A1.02093,1.02093,0,0,1,60.71,79.29a.99143.99143,0,0,1,.21.31982A.90785.90785,0,0,1,61,80a.838.838,0,0,1-.08008.37988.99143.99143,0,0,1-.21.31982A1.01772,1.01772,0,0,1,60,81Z" style="fill:#8699b0"/><path d="M41,98.99854H21a1,1,0,0,1,0-2H41a1,1,0,1,1,0,2Z" style="fill:#8699b0"/><path d="M50,98.99854H47a1,1,0,0,1,0-2h3a1,1,0,1,1,0,2Z" style="fill:#8699b0"/><path d="M67,98.99854H53a1,1,0,0,1,0-2H67a1,1,0,0,1,0,2Z" style="fill:#8699b0"/><path d="M93.249,98.99854H73a1,1,0,0,1,0-2H93.249a1,1,0,0,1,0,2Z" style="fill:#8699b0"/><path d="M31,102.99854H21a1,1,0,0,1,0-2H31a1,1,0,0,1,0,2Z" style="fill:#8699b0"/><path d="M41,102.99854H35a1,1,0,1,1,0-2h6a1,1,0,0,1,0,2Z" style="fill:#8699b0"/><path d="M67,102.99854H47a1,1,0,1,1,0-2H67a1,1,0,0,1,0,2Z" style="fill:#8699b0"/><path d="M93.249,102.99854H73a1,1,0,0,1,0-2H93.249a1,1,0,0,1,0,2Z" style="fill:#8699b0"/><path d="M41,106.99854H21a1,1,0,0,1,0-2H41a1,1,0,0,1,0,2Z" style="fill:#8699b0"/><path d="M67,106.99854H47a1,1,0,1,1,0-2H67a1,1,0,0,1,0,2Z" style="fill:#8699b0"/><path d="M93.249,106.99854H78a1,1,0,0,1,0-2H93.249a1,1,0,0,1,0,2Z" style="fill:#8699b0"/><path d="M75,106.99854H73a1,1,0,0,1,0-2h2a1,1,0,0,1,0,2Z" style="fill:#8699b0"/></g><circle cx="59.63042" cy="59.73597" r="29.05989" style="fill:#7fd4e3"/><path d="M59.63042,88.79586a29.02182,29.02182,0,0,0,23.445-46.1794L42.51091,83.181A28.89018,28.89018,0,0,0,59.63042,88.79586Z" style="fill:#fff;opacity:0.2"/><path d="M75.10895,35.17168,35.06613,75.2145a29.13491,29.13491,0,0,0,3.35868,4.34694L79.45589,38.53035A29.1349,29.1349,0,0,0,75.10895,35.17168Z" style="fill:#fff;opacity:0.2"/><path d="M90.90955,86.24165l-5.4344-5.41679a33.55869,33.55869,0,0,1-4.71094,4.7264l5.43458,5.41662Z" style="fill:#eef6ff"/><path d="M87.92715,83.27682l-2.452-2.452a33.55979,33.55979,0,0,1-4.71094,4.72638l2.4563,2.44818A33.55422,33.55422,0,0,0,87.92715,83.27682Z" style="fill:#2c4b75;opacity:0.2"/><path d="M59.556,26.39068A33.36521,33.36521,0,1,0,92.97579,59.70121,33.36517,33.36517,0,0,0,59.556,26.39068Zm.10172,62.42672A29.06,29.06,0,1,1,88.66995,59.71,29.05991,29.05991,0,0,1,59.65769,88.8174Z" style="fill:#eef6ff"/><g style="opacity:0.15"><path d="M59.66528,90A33.36263,33.36263,0,0,1,26.28467,58.14893q-.03918.82581-.03931,1.66162a33.36528,33.36528,0,0,0,66.73047-.10937c-.00085-.4895-.0177-.9751-.03931-1.45947A33.36566,33.36566,0,0,1,59.66528,90Z" style="fill:#2c4b75"/></g><path d="M86.19873,91.96777a.99793.99793,0,0,1-.70605-.2915l-5.43457-5.4165a1.00024,1.00024,0,1,1,1.41211-1.417l5.43457,5.4165a1,1,0,0,1-.70605,1.7085Z" style="fill:#647fa1"/><path d="M90.90967,87.2417a.996.996,0,0,1-.70508-.291l-2.98242-2.96484a.9999.9999,0,1,1,1.41016-1.418l2.98242,2.96484a1,1,0,0,1-.70508,1.709Z" style="fill:#647fa1"/><path d="M59.66528,29.14893A33.36263,33.36263,0,0,0,26.28467,61q-.03918-.82581-.03931-1.66162a33.36528,33.36528,0,1,1,66.73047.10938c-.00085.4895-.0177.9751-.03931,1.45947A33.36566,33.36566,0,0,0,59.66528,29.14893Z" style="fill:#fff"/><path d="M59.63428,93.731A34.40488,34.40488,0,0,1,25.26953,59.36377q0-1.07959.06689-2.17285a.99991.99991,0,0,1,1.99609.12207q-.063,1.032-.063,2.05078A32.40259,32.40259,0,0,0,59.63428,91.731c.708,0,1.43359-.02393,2.15771-.0708A32.291,32.291,0,0,0,81.97559,82.73a1.00014,1.00014,0,1,1,1.38281,1.44531,34.29917,34.29917,0,0,1-21.437,9.481C61.15479,93.70557,60.38525,93.731,59.63428,93.731Zm25.75146-12.208a1,1,0,0,1-.771-1.63623,32.93284,32.93284,0,0,0,2.28516-3.1333,1,1,0,0,1,1.68262,1.08105,34.81713,34.81713,0,0,1-2.4248,3.32422A.99711.99711,0,0,1,85.38574,81.52295Zm4.31006-6.71289a1,1,0,0,1-.89941-1.436,31.76745,31.76745,0,0,0,3.14307-11.99658Q92.00024,60.36523,92,59.3667a32.12962,32.12962,0,0,0-2.78711-13.16162,9.15831,9.15831,0,0,1-.79492-3.75244c0-.12549.00293-.251.00781-.37646L88.501,40.21a.99983.99983,0,1,1,1.998.08008l-.0752,1.86523c-.00391.09814-.00586.19824-.00586.29736A7.16271,7.16271,0,0,0,91.04,45.39111,34.12691,34.12691,0,0,1,94,59.3667q0,1.05835-.06445,2.13135a33.74705,33.74705,0,0,1-3.33936,12.748A.99994.99994,0,0,1,89.6958,74.81006ZM36.94287,35.95752a1,1,0,0,1-.68115-1.73193,34.322,34.322,0,0,1,21.14844-9.15527c.73486-.04687,1.48389-.0708,2.22559-.0708a34.31027,34.31027,0,0,1,22.853,8.70068,1.00016,1.00016,0,1,1-1.33105,1.49316,32.312,32.312,0,0,0-21.522-8.19385c-.69922,0-1.40527.02246-2.09863.06689a32.31953,32.31953,0,0,0-19.91309,8.623A.99632.99632,0,0,1,36.94287,35.95752Z" style="fill:#647fa1"/><rect height="38.38478" rx="3" ry="3" style="fill:#cee2ee" transform="translate(-42.28101 102.07538) rotate(-45)" width="13" x="95.57538" y="82.88299"/><path d="M111.75736,116.70711,87.44365,92.3934a2,2,0,0,1,0-2.82843l-1.41421,1.41421a3,3,0,0,0,0,4.24264l22.89949,22.89949a3,3,0,0,0,4.24264,0l1.41421-1.41421A2,2,0,0,1,111.75736,116.70711Z" style="fill:#2c4b75;opacity:0.2"/><rect height="38.38478" rx="2" ry="2" style="fill:#fff;opacity:0.5" transform="translate(-41.22035 102.5147) rotate(-44.99999)" width="4" x="101.13604" y="81.82233"/><path d="M111.05029,120a3.973,3.973,0,0,1-2.82861-1.17187l-2.876-2.876a.99989.99989,0,0,1,1.41406-1.41406l2.876,2.876a2.04707,2.04707,0,0,0,2.82813,0l4.9502-4.94971a1.99986,1.99986,0,0,0,0-2.82861L94.51465,86.73633a2.04863,2.04863,0,0,0-2.82861,0L86.73633,91.686a2.001,2.001,0,0,0,0,2.82861l7.562,7.5625a.99989.99989,0,0,1-1.41406,1.41406l-7.562-7.5625a4.00031,4.00031,0,0,1-.00049-5.65625l4.9502-4.9502a4.09509,4.09509,0,0,1,5.65625-.00049l22.8999,22.8999a3.99913,3.99913,0,0,1,0,5.65674l-4.94971,4.94971A3.97016,3.97016,0,0,1,111.05029,120Zm-7.82617-6.5835a.99676.99676,0,0,1-.707-.293l-.8999-.8999a3.18972,3.18972,0,0,0-1.82666-.90137.99988.99988,0,1,1,.2627-1.98242,5.19932,5.19932,0,0,1,2.978,1.46973l.8999.8999a1,1,0,0,1-.707,1.707Z" style="fill:#647fa1"/><path d="M86.73633,96.92871a1,1,0,0,1-.707-1.707l4.9502-4.94971A.99989.99989,0,0,1,92.39355,91.686l-4.9502,4.94971A.99676.99676,0,0,1,86.73633,96.92871Z" style="fill:#647fa1"/><path d="M94.51465,89.15088a1,1,0,0,1-.707-1.707l1.41406-1.41455a.99989.99989,0,0,1,1.41406,1.41406l-1.41406,1.41455A.99593.99593,0,0,1,94.51465,89.15088Z" style="fill:#647fa1"/><path d="M56.0835,73.75a.99909.99909,0,0,1-.69043-.27686l-10.0835-9.625a.99982.99982,0,0,1,1.38086-1.44629l9.24365,8.82275,16.748-23.80029a1.00016,1.00016,0,1,1,1.63574,1.15137l-17.4165,24.75a1.0005,1.0005,0,0,1-.72021.41943A.94088.94088,0,0,1,56.0835,73.75Z" style="fill:#fff"/><g style="opacity:0.65"><path d="M112,31a.99676.99676,0,0,1-.707-.293l-4.25-4.25a.99964.99964,0,0,1,0-1.41406l4.25-4.25a.99964.99964,0,0,1,1.41406,0l4.25,4.25a.99964.99964,0,0,1,0,1.41406l-4.25,4.25A.99676.99676,0,0,1,112,31Zm-2.83594-5.25L112,28.58594,114.83594,25.75,112,22.91406Z" style="fill:#647fa1"/><path d="M113,83a1,1,0,0,1-1-1V76a1,1,0,0,1,2,0v6A1,1,0,0,1,113,83Z" style="fill:#647fa1"/><path d="M116,80h-6a1,1,0,0,1,0-2h6a1,1,0,0,1,0,2Z" style="fill:#647fa1"/><path d="M6,54a1,1,0,0,1-1-1V52a1,1,0,0,1,2,0v1A1,1,0,0,1,6,54Z" style="fill:#647fa1"/><path d="M6,59a1,1,0,0,1-1-1V57a1,1,0,0,1,2,0v1A1,1,0,0,1,6,59Z" style="fill:#647fa1"/><path d="M4,56H3a1,1,0,0,1,0-2H4a1,1,0,0,1,0,2Z" style="fill:#647fa1"/><path d="M9,56H8a1,1,0,0,1,0-2H9a1,1,0,0,1,0,2Z" style="fill:#647fa1"/></g></svg>