<?xml version="1.0" ?><svg height="128" id="STROKE_8" viewBox="0 0 128 128" width="128" xmlns="http://www.w3.org/2000/svg"><title/><circle cx="64" cy="64" r="55" style="fill:#abdbf5;opacity:0.3"/><g style="opacity:0.5"><path d="M36,107a.99974.99974,0,0,1-1-1v-1.5a1,1,0,0,1,2,0V106A.99974.99974,0,0,1,36,107Z" style="fill:#8699b0"/><path d="M36,101.5a.99974.99974,0,0,1-1-1V99a1,1,0,0,1,2,0v1.5A.99974.99974,0,0,1,36,101.5Z" style="fill:#8699b0"/><path d="M65,106a.99974.99974,0,0,1-1-1v-1a1,1,0,0,1,2,0v1A.99974.99974,0,0,1,65,106Z" style="fill:#8699b0"/><path d="M65,100a.99974.99974,0,0,1-1-1V97a1,1,0,0,1,2,0v2A.99974.99974,0,0,1,65,100Zm0-7a.99974.99974,0,0,1-1-1V90a1,1,0,0,1,2,0v2A.99974.99974,0,0,1,65,93Zm0-7a.99974.99974,0,0,1-1-1V83a1,1,0,0,1,2,0v2A.99974.99974,0,0,1,65,86Zm0-7a.99974.99974,0,0,1-1-1V76a1,1,0,0,1,2,0v2A.99974.99974,0,0,1,65,79Zm0-7a.99974.99974,0,0,1-1-1V69a1,1,0,0,1,2,0v2A.99974.99974,0,0,1,65,72Zm0-7a.99974.99974,0,0,1-1-1V62a1,1,0,0,1,2,0v2A.99974.99974,0,0,1,65,65Z" style="fill:#8699b0"/><path d="M65,58a.99974.99974,0,0,1-1-1V56a1,1,0,0,1,2,0v1A.99974.99974,0,0,1,65,58Z" style="fill:#8699b0"/><path d="M94,107a.99974.99974,0,0,1-1-1v-1a1,1,0,0,1,2,0v1A.99974.99974,0,0,1,94,107Z" style="fill:#8699b0"/><path d="M94,101.8335a.99974.99974,0,0,1-1-1V99.167a1,1,0,0,1,2,0v1.6665A.99974.99974,0,0,1,94,101.8335Z" style="fill:#8699b0"/><path d="M94,96a.99974.99974,0,0,1-1-1V94a1,1,0,0,1,2,0v1A.99974.99974,0,0,1,94,96Z" style="fill:#8699b0"/><path d="M31,112H29a1,1,0,0,1,0-2h2a1,1,0,0,1,0,2Zm-7,0H22a1,1,0,0,1,0-2h2a1,1,0,0,1,0,2Zm-7,0H15a1,1,0,0,1,0-2h2a1,1,0,0,1,0,2Z" style="fill:#8699b0"/><path d="M117,112h-2a1,1,0,0,1,0-2h2a1,1,0,0,1,0,2Zm-7,0h-2a1,1,0,0,1,0-2h2a1,1,0,0,1,0,2Zm-7,0h-2a1,1,0,0,1,0-2h2a1,1,0,0,1,0,2Z" style="fill:#8699b0"/><path d="M88,112H86a1,1,0,0,1,0-2h2a1,1,0,0,1,0,2Zm-7,0H79a1,1,0,0,1,0-2h2a1,1,0,0,1,0,2Zm-7,0H72a1,1,0,0,1,0-2h2a1,1,0,0,1,0,2Zm-7,0H65a1,1,0,0,1,0-2h2a1,1,0,0,1,0,2Zm-7,0H58a1,1,0,0,1,0-2h2a1,1,0,0,1,0,2Zm-7,0H51a1,1,0,0,1,0-2h2a1,1,0,0,1,0,2Zm-7,0H44a1,1,0,0,1,0-2h2a1,1,0,0,1,0,2Zm-6.99023,0A1,1,0,0,1,39,110h.00977a1,1,0,0,1,0,2Z" style="fill:#8699b0"/></g><circle cx="94" cy="111" r="5" style="fill:#6ad1e3"/><path d="M94,109a4.98332,4.98332,0,0,1,4.75568,3.53253A4.93834,4.93834,0,0,0,99,111a5,5,0,0,0-10,0,4.93834,4.93834,0,0,0,.24432,1.53253A4.98332,4.98332,0,0,1,94,109Z" style="fill:#fff;opacity:0.5"/><path d="M94,117a5.95061,5.95061,0,0,1-3.60156-1.20068.99981.99981,0,1,1,1.20117-1.59863A4.00065,4.00065,0,1,0,90,111a1,1,0,0,1-2,0,6,6,0,1,1,6,6Z" style="fill:#647fa1"/><circle cx="65" cy="111" r="5" style="fill:#cee2ee"/><path d="M65,109a4.98332,4.98332,0,0,1,4.75568,3.53253A4.93834,4.93834,0,0,0,70,111a5,5,0,0,0-10,0,4.93834,4.93834,0,0,0,.24432,1.53253A4.98332,4.98332,0,0,1,65,109Z" style="fill:#fff;opacity:0.5"/><path d="M65,117a6.00016,6.00016,0,0,1-3.60059-10.7998,1.0002,1.0002,0,0,1,1.20117,1.59961,3.99862,3.99862,0,1,0,4.001-.4668.9997.9997,0,1,1,.80078-1.832A6.00058,6.00058,0,0,1,65,117Z" style="fill:#647fa1"/><circle cx="36" cy="111" r="5" style="fill:#eef6ff"/><path d="M36,109a4.98332,4.98332,0,0,1,4.75568,3.53253A4.93834,4.93834,0,0,0,41,111a5,5,0,0,0-10,0,4.93834,4.93834,0,0,0,.24432,1.53253A4.98332,4.98332,0,0,1,36,109Z" style="fill:#fff;opacity:0.5"/><path d="M36,117a5.99951,5.99951,0,1,1,4.7998-2.39941,1.0002,1.0002,0,0,1-1.59961-1.20117A3.96208,3.96208,0,0,0,40,111a4,4,0,1,0-4,4,1,1,0,0,1,0,2Z" style="fill:#647fa1"/><g style="opacity:0.65"><path d="M30,9a.99974.99974,0,0,1-1-1V7a1,1,0,0,1,2,0V8A.99974.99974,0,0,1,30,9Z" style="fill:#647fa1"/><path d="M30,14a.99974.99974,0,0,1-1-1V12a1,1,0,0,1,2,0v1A.99974.99974,0,0,1,30,14Z" style="fill:#647fa1"/><path d="M28,11H27a1,1,0,0,1,0-2h1a1,1,0,0,1,0,2Z" style="fill:#647fa1"/><path d="M33,11H32a1,1,0,0,1,0-2h1a1,1,0,0,1,0,2Z" style="fill:#647fa1"/><path d="M96,16a1.26017,1.26017,0,0,1-.19043-.02.61438.61438,0,0,1-.18945-.06006.5476.5476,0,0,1-.16992-.09033A1.9526,1.9526,0,0,1,95.29,15.71,1.02954,1.02954,0,0,1,95,15a.98193.98193,0,0,1,.08008-.38037,1.02671,1.02671,0,0,1,.21-.32959c.0498-.04.09961-.08008.16016-.12012a.5476.5476,0,0,1,.16992-.09033.6009.6009,0,0,1,.18945-.05957,1.20893,1.20893,0,0,1,.37988,0,.60664.60664,0,0,1,.19043.05957.5587.5587,0,0,1,.16992.09033c.05957.04.11035.08008.16016.12012a1.02671,1.02671,0,0,1,.21.32959A1,1,0,0,1,97,15a1.14111,1.14111,0,0,1-.02051.18994.59144.59144,0,0,1-.05957.18994.77551.77551,0,0,1-.08984.18018c-.04.0498-.08008.09961-.12012.1499-.0498.04-.10059.08008-.16016.11963a.5587.5587,0,0,1-.16992.09033.62025.62025,0,0,1-.19043.06006A1.24751,1.24751,0,0,1,96,16Z" style="fill:#647fa1"/><path d="M96,22a1.26017,1.26017,0,0,1-.19043-.02.61438.61438,0,0,1-.18945-.06006.5476.5476,0,0,1-.16992-.09033A.9123.9123,0,0,1,95.29,21.71a1.03424,1.03424,0,0,1-.21-.33008A.98141.98141,0,0,1,95,21a1.04778,1.04778,0,0,1,.29-.71c.0498-.04.09961-.08008.16016-.12012a.5476.5476,0,0,1,.16992-.09033.6009.6009,0,0,1,.18945-.05957.80584.80584,0,0,1,.37988,0,.60664.60664,0,0,1,.19043.05957.5587.5587,0,0,1,.16992.09033c.05957.04.11035.08008.16016.12012A1.05235,1.05235,0,0,1,97,21a.99953.99953,0,0,1-.08008.37988,1.03424,1.03424,0,0,1-.21.33008.95.95,0,0,1-.16016.11963.5587.5587,0,0,1-.16992.09033.62025.62025,0,0,1-.19043.06006A1.24751,1.24751,0,0,1,96,22Z" style="fill:#647fa1"/><path d="M93,19a1.54205,1.54205,0,0,1-.2002-.02.649.649,0,0,1-.17969-.06006.762.762,0,0,1-.18066-.09033A1.52619,1.52619,0,0,1,92.29,18.71c-.04-.05029-.08008-.1001-.12012-.1499a.73882.73882,0,0,1-.08984-.18018.62275.62275,0,0,1-.06055-.18018A1.38272,1.38272,0,0,1,92,18a.98193.98193,0,0,1,.08008-.38037,1.02671,1.02671,0,0,1,.21-.32959l.14941-.12012a.762.762,0,0,1,.18066-.09033A.6318.6318,0,0,1,92.7998,17.02a.9586.9586,0,0,1,.58008.05957.90422.90422,0,0,1,.54.54A1,1,0,0,1,94,18a1.25919,1.25919,0,0,1-.02051.19971.61976.61976,0,0,1-.05957.18018.77551.77551,0,0,1-.08984.18018c-.04.0498-.08008.09961-.12012.1499a1.17134,1.17134,0,0,1-.33008.21A.838.838,0,0,1,93,19Z" style="fill:#647fa1"/><path d="M99,19a1.03212,1.03212,0,0,1-.71-.29.97966.97966,0,0,1-.12012-.16016.54155.54155,0,0,1-.08984-.16992.62275.62275,0,0,1-.06055-.18018A1.38272,1.38272,0,0,1,98,18a1.04778,1.04778,0,0,1,.29-.71.9985.9985,0,0,1,1.08984-.21045A1.04094,1.04094,0,0,1,99.71,17.29a.95523.95523,0,0,1,.12012.15967.57412.57412,0,0,1,.08984.16992.59046.59046,0,0,1,.05957.19043A1.13558,1.13558,0,0,1,100,18a1.25919,1.25919,0,0,1-.02051.19971.61976.61976,0,0,1-.05957.18018.56241.56241,0,0,1-.08984.16992A.97966.97966,0,0,1,99.71,18.71a1.04819,1.04819,0,0,1-.33008.21A.99953.99953,0,0,1,99,19Z" style="fill:#647fa1"/><path d="M115.04395,48.8623a1.00015,1.00015,0,0,1-.26074-1.96533,3.01947,3.01947,0,0,0,.72168-.30176,1.00029,1.00029,0,0,1,1.00391,1.73047,5.02871,5.02871,0,0,1-1.20215.501A.99247.99247,0,0,1,115.04395,48.8623Zm-3.03125-.38965a.99387.99387,0,0,1-.49707-.13281,5.016,5.016,0,0,1-1.03418-.78857.99956.99956,0,1,1,1.40625-1.4209,3.04746,3.04746,0,0,0,.624.4751,1.0001,1.0001,0,0,1-.499,1.86719Zm5.85352-2.43848a1.001,1.001,0,0,1-.9668-1.2583A3.03592,3.03592,0,0,0,117,44a1.01939,1.01939,0,0,1,.999-1.02295.98.98,0,0,1,1,.97656h-1l1,.00879a5.03156,5.03156,0,0,1-.168,1.3291A1.00064,1.00064,0,0,1,117.86621,46.03418ZM110,45.01172a.98981.98981,0,0,1-1-.98828V44a4.99678,4.99678,0,0,1,.16113-1.2627.99991.99991,0,1,1,1.93555.50293A3.01251,3.01251,0,0,0,111,44,1.0098,1.0098,0,0,1,110,45.01172Zm6.7998-2.86865a.99588.99588,0,0,1-.7002-.28613,2.99572,2.99572,0,0,0-.625-.47021,1.0001,1.0001,0,0,1,.98438-1.74121,5.01729,5.01729,0,0,1,1.041.78369,1,1,0,0,1-.7002,1.71387Zm-4.82617-.59229a.9997.9997,0,0,1-.50781-1.86182,4.95029,4.95029,0,0,1,1.20117-.50879.9998.9998,0,1,1,.53125,1.92773,2.98485,2.98485,0,0,0-.71875.30469A.99469.99469,0,0,1,111.97363,41.55078Z" style="fill:#647fa1"/><path d="M13,48a4,4,0,1,1,4-4A4.00427,4.00427,0,0,1,13,48Zm0-6a2,2,0,1,0,2,2A2.00229,2.00229,0,0,0,13,42Z" style="fill:#647fa1"/></g><path d="M87,38H43.08032V16a2,2,0,0,1,2-2H85a2,2,0,0,1,2,2Z" style="fill:#cee2ee"/><g style="opacity:0.2"><polygon points="78.482 14 74.239 14 50.239 38 54.482 38 78.482 14" style="fill:#fff"/><path d="M85,14H82.72437l-24,24H87V16A2,2,0,0,0,85,14Z" style="fill:#fff"/></g><rect height="6" style="fill:#cee2ee" width="10" x="60" y="46"/><rect height="3" style="fill:#2c4b75;opacity:0.2" width="10" x="60" y="46"/><path d="M85,46H45.08032a2,2,0,0,1-2-2V38H87v6A2,2,0,0,1,85,46Z" style="fill:#fff"/><path d="M85,43H45.08032a2,2,0,0,1-2-2v3a2,2,0,0,0,2,2H85a2,2,0,0,0,2-2V41A2,2,0,0,1,85,43Z" style="fill:#5b8ea8;opacity:0.15"/><path d="M85,14H45.08032a2,2,0,0,0-2,2v3a2,2,0,0,1,2-2H85a2,2,0,0,1,2,2V16A2,2,0,0,0,85,14Z" style="fill:#2c4b75;opacity:0.2"/><path d="M70,53H60a.99974.99974,0,0,1-1-1V46a1,1,0,0,1,2,0v5h8V49a1,1,0,0,1,2,0v3A.99974.99974,0,0,1,70,53Z" style="fill:#647fa1"/><path d="M85,47H45.08008a3.00328,3.00328,0,0,1-3-3V34a1,1,0,0,1,2,0V44a1.001,1.001,0,0,0,1,1H85a1.001,1.001,0,0,0,1-1V38a1,1,0,0,1,2,0v6A3.00328,3.00328,0,0,1,85,47Z" style="fill:#647fa1"/><path d="M87,39a.99974.99974,0,0,1-1-1V16a1.001,1.001,0,0,0-1-1H78.48145a1,1,0,0,1,0-2H85a3.00328,3.00328,0,0,1,3,3V38A.99974.99974,0,0,1,87,39Z" style="fill:#647fa1"/><path d="M43.08008,31a.99974.99974,0,0,1-1-1V16a3.00328,3.00328,0,0,1,3-3H61.957a6.80612,6.80612,0,0,0,5.123-2.3252,1.00039,1.00039,0,0,1,1.50586,1.31738A8.80811,8.80811,0,0,1,61.957,15h-16.877a1.001,1.001,0,0,0-1,1V30A.99974.99974,0,0,1,43.08008,31Z" style="fill:#647fa1"/><path d="M65,43a1.03212,1.03212,0,0,1-.71-.29,1,1,0,1,1,1.41992,0c-.0498.04-.10059.08008-.15039.11963a.75629.75629,0,0,1-.17969.09033.65979.65979,0,0,1-.17969.06006A1.40433,1.40433,0,0,1,65,43Z" style="fill:#647fa1;opacity:0.5"/><path d="M72,53H58a1,1,0,0,1,0-2H72a1,1,0,0,1,0,2Z" style="fill:#647fa1"/><path d="M58,81H14.08032V59a2,2,0,0,1,2-2H56a2,2,0,0,1,2,2Z" style="fill:#eef6ff"/><g style="opacity:0.5"><polygon points="49.243 57 45 57 21 81 25.243 81 49.243 57" style="fill:#fff"/><path d="M55.761,57H53.48535l-24,24H57.761V59A2,2,0,0,0,55.761,57Z" style="fill:#fff"/></g><rect height="6" style="fill:#cee2ee" width="10" x="31" y="89"/><rect height="3" style="fill:#2c4b75;opacity:0.2" width="10" x="31" y="89"/><path d="M56,89H16.08032a2,2,0,0,1-2-2V81H58v6A2,2,0,0,1,56,89Z" style="fill:#cee2ee"/><path d="M56,86H16.08032a2,2,0,0,1-2-2v3a2,2,0,0,0,2,2H56a2,2,0,0,0,2-2V84A2,2,0,0,1,56,86Z" style="fill:#5b8ea8;opacity:0.15"/><path d="M56,57H16.08032a2,2,0,0,0-2,2v3a2,2,0,0,1,2-2H56a2,2,0,0,1,2,2V59A2,2,0,0,0,56,57Z" style="fill:#2c4b75;opacity:0.2"/><path d="M41,96H31a.99974.99974,0,0,1-1-1V92a1,1,0,0,1,2,0v2h8V89a1,1,0,0,1,2,0v6A.99974.99974,0,0,1,41,96Z" style="fill:#647fa1"/><path d="M56,90H35.09863a1,1,0,0,1,0-2H56a1.001,1.001,0,0,0,1-1V71.04443a1,1,0,1,1,2,0V87A3.00328,3.00328,0,0,1,56,90ZM31.09863,90H16.08008a3.00328,3.00328,0,0,1-3-3V77.25a7.75509,7.75509,0,0,0-1.99121-5.19336,1.00029,1.00029,0,0,1,1.48828-1.33691A9.75194,9.75194,0,0,1,15.08008,77.25V87a1.001,1.001,0,0,0,1,1H31.09863a1,1,0,0,1,0,2ZM58,68.04443a.99974.99974,0,0,1-1-1v-4a1,1,0,0,1,2,0v4A.99974.99974,0,0,1,58,68.04443ZM14.08008,63.75a.99974.99974,0,0,1-1-1V59a3.00328,3.00328,0,0,1,3-3H56a3.00328,3.00328,0,0,1,3,3,1.01915,1.01915,0,0,1-1,1.02246.98123.98123,0,0,1-1-.978A1.01147,1.01147,0,0,0,56,58H16.08008a1.001,1.001,0,0,0-1,1v3.75A.99974.99974,0,0,1,14.08008,63.75Z" style="fill:#647fa1"/><path d="M36,86a1.05235,1.05235,0,0,1-.71-.29,1.03424,1.03424,0,0,1-.21-.33008A.98141.98141,0,0,1,35,85a1.38267,1.38267,0,0,1,.01953-.2002.62275.62275,0,0,1,.06055-.18018.74472.74472,0,0,1,.08984-.17969A1.55249,1.55249,0,0,1,35.29,84.29a.9338.9338,0,0,1,.33008-.21045,1.0032,1.0032,0,0,1,.75977,0A1.04094,1.04094,0,0,1,36.71,84.29c.04.0498.08008.09961.12012.1499a.78218.78218,0,0,1,.08984.17969.61976.61976,0,0,1,.05957.18018A1.25942,1.25942,0,0,1,37,85a.99953.99953,0,0,1-.08008.37988,1.03424,1.03424,0,0,1-.21.33008A1.05423,1.05423,0,0,1,36,86Z" style="fill:#647fa1;opacity:0.5"/><path d="M43,96H29a1,1,0,0,1,0-2H43a1,1,0,0,1,0,2Z" style="fill:#647fa1"/><path d="M116,81H72.08032V59a2,2,0,0,1,2-2H114a2,2,0,0,1,2,2Z" style="fill:#7fd4e3"/><g style="opacity:0.2"><polygon points="107.482 57 103.239 57 79.239 81 83.482 81 107.482 57" style="fill:#fff"/><path d="M114,57h-2.27563l-24,24H116V59A2,2,0,0,0,114,57Z" style="fill:#fff"/></g><rect height="6" style="fill:#cee2ee" width="10" x="89" y="89"/><rect height="3" style="fill:#2c4b75;opacity:0.2" width="10" x="89" y="89"/><path d="M114,89H74.08032a2,2,0,0,1-2-2V81H116v6A2,2,0,0,1,114,89Z" style="fill:#fff"/><path d="M114,86H74.08032a2,2,0,0,1-2-2v3a2,2,0,0,0,2,2H114a2,2,0,0,0,2-2V84A2,2,0,0,1,114,86Z" style="fill:#5b8ea8;opacity:0.15"/><path d="M114,57H74.08032a2,2,0,0,0-2,2v3a2,2,0,0,1,2-2H114a2,2,0,0,1,2,2V59A2,2,0,0,0,114,57Z" style="fill:#2c4b75;opacity:0.2"/><path d="M99,96H89a.99974.99974,0,0,1-1-1V89a1,1,0,0,1,2,0v5h8V92a1,1,0,0,1,2,0v3A.99974.99974,0,0,1,99,96Z" style="fill:#647fa1"/><path d="M117.40723,71.7373a.99955.99955,0,0,1-.7998-.39795,7.95613,7.95613,0,0,1-1.58594-4.22217,1.00071,1.00071,0,0,1,.9248-1.07031,1.01156,1.01156,0,0,1,1.06934.9248,5.96161,5.96161,0,0,0,1.18945,3.16357,1,1,0,0,1-.79785,1.60205ZM72.08008,69.74951a.99974.99974,0,0,1-1-1V59a3.00328,3.00328,0,0,1,3-3H114a3.00328,3.00328,0,0,1,3,3v4.04492a1,1,0,0,1-2,0V59a1.001,1.001,0,0,0-1-1H74.08008a1.001,1.001,0,0,0-1,1v9.74951A.99974.99974,0,0,1,72.08008,69.74951Z" style="fill:#647fa1"/><path d="M114,90H74.08008a3.00328,3.00328,0,0,1-3-3V81a1,1,0,0,1,2,0v6a1.001,1.001,0,0,0,1,1H114a1.001,1.001,0,0,0,1-1V81a1,1,0,0,1,2,0v6A3.00328,3.00328,0,0,1,114,90Z" style="fill:#647fa1"/><path d="M94,86a1.39038,1.39038,0,0,1-.2002-.02.649.649,0,0,1-.17969-.06006.762.762,0,0,1-.18066-.09033C93.38965,85.79,93.33984,85.75,93.29,85.71A1.02954,1.02954,0,0,1,93,85a.98193.98193,0,0,1,.08008-.38037,1.02671,1.02671,0,0,1,.21-.32959,1.5335,1.5335,0,0,1,.14941-.12012.762.762,0,0,1,.18066-.09033A.6318.6318,0,0,1,93.7998,84.02a.9586.9586,0,0,1,.58008.05957A1.16226,1.16226,0,0,1,94.71,84.29a1.02671,1.02671,0,0,1,.21.32959A1,1,0,0,1,95,85a1.03393,1.03393,0,0,1-.29.71,1.17134,1.17134,0,0,1-.33008.21A.99953.99953,0,0,1,94,86Z" style="fill:#647fa1;opacity:0.5"/><path d="M101,96H87a1,1,0,0,1,0-2h14a1,1,0,0,1,0,2Z" style="fill:#647fa1"/></svg>