<?xml version="1.0" ?><svg height="128" id="STROKE_8" viewBox="0 0 128 128" width="128" xmlns="http://www.w3.org/2000/svg"><title/><circle cx="64" cy="64" r="55" style="fill:#abdbf5;opacity:0.3"/><g style="opacity:0.65"><path d="M36,115a.99974.99974,0,0,1-1-1v-1a1,1,0,0,1,2,0v1A.99974.99974,0,0,1,36,115Z" style="fill:#647fa1"/><path d="M36,122a.99974.99974,0,0,1-1-1v-1a1,1,0,0,1,2,0v1A.99974.99974,0,0,1,36,122Z" style="fill:#647fa1"/><path d="M33,118H32a1,1,0,0,1,0-2h1a1,1,0,0,1,0,2Z" style="fill:#647fa1"/><path d="M40,118H39a1,1,0,0,1,0-2h1a1,1,0,0,1,0,2Z" style="fill:#647fa1"/><path d="M10,65a.99974.99974,0,0,1-1-1V63a1,1,0,0,1,2,0v1A.99974.99974,0,0,1,10,65Z" style="fill:#647fa1"/><path d="M10,70a.99974.99974,0,0,1-1-1V68a1,1,0,0,1,2,0v1A.99974.99974,0,0,1,10,70Z" style="fill:#647fa1"/><path d="M8,67H7a1,1,0,0,1,0-2H8a1,1,0,0,1,0,2Z" style="fill:#647fa1"/><path d="M13,67H12a1,1,0,0,1,0-2h1a1,1,0,0,1,0,2Z" style="fill:#647fa1"/><path d="M96,16a.99974.99974,0,0,1-1-1V14a1,1,0,0,1,2,0v1A.99974.99974,0,0,1,96,16Z" style="fill:#647fa1"/><path d="M96,21a.99974.99974,0,0,1-1-1V19a1,1,0,0,1,2,0v1A.99974.99974,0,0,1,96,21Z" style="fill:#647fa1"/><path d="M94,18H93a1,1,0,0,1,0-2h1a1,1,0,0,1,0,2Z" style="fill:#647fa1"/><path d="M99,18H98a1,1,0,0,1,0-2h1a1,1,0,0,1,0,2Z" style="fill:#647fa1"/><path d="M48,15a4.00427,4.00427,0,0,1-4-4,1,1,0,0,1,2,0,2,2,0,1,0,2-2,1,1,0,0,1,0-2,4,4,0,0,1,0,8Z" style="fill:#647fa1"/><path d="M110,117a.99974.99974,0,0,1-1-1v-6a1,1,0,0,1,2,0v6A.99974.99974,0,0,1,110,117Z" style="fill:#647fa1"/><path d="M113,114h-6a1,1,0,0,1,0-2h6a1,1,0,0,1,0,2Z" style="fill:#647fa1"/><path d="M113.5,45a4.5,4.5,0,0,1,0-9,1,1,0,0,1,0,2,2.5,2.5,0,1,0,2.5,2.5,1,1,0,0,1,2,0A4.50492,4.50492,0,0,1,113.5,45Z" style="fill:#647fa1"/></g><path d="M23.23084,105.00021H70.00007v-82L23.04356,23a1.02244,1.02244,0,0,0-1.04349,1v80.00021A1.13354,1.13354,0,0,0,23.23084,105.00021Z" style="fill:#eef6ff"/><path d="M67.99989,105.00021H84.82075a1.10092,1.10092,0,0,0,1.17949-1V24a1,1,0,0,0-1-1l-17.00034.00021Z" style="fill:#cfd8e6"/><path d="M84.82075,100.99979H67.99989v4.00043H84.82075a1.10093,1.10093,0,0,0,1.17949-1V99.99979A1.10089,1.10089,0,0,1,84.82075,100.99979Z" style="fill:#2c4b75;opacity:0.2"/><path d="M84.99933,23a1,1,0,0,1,1,1v3.99982a.99982.99982,0,0,0-1-.99982H67.99918V23.00024Z" style="fill:#fff;opacity:0.5"/><path d="M23.0001,23a1,1,0,0,0-1,1v3.99982a.99982.99982,0,0,1,1-.99982H67.99991V23.00024Z" style="fill:#fff;opacity:0.75"/><path d="M22.00009,99.99979v4.00043a1.10093,1.10093,0,0,0,1.17949,1H67.99989v-4.00043H23.17958A1.10089,1.10089,0,0,1,22.00009,99.99979Z" style="fill:#2c4b75;opacity:0.2"/><rect height="11.0001" style="fill:#ff8585" width="46.00211" x="21.99812" y="31.9998"/><rect height="16" style="fill:#fff" width="30.12843" x="29.87074" y="65"/><path d="M36.999,70h-3a1,1,0,0,1,0-2h3a1,1,0,0,1,0,2Z" style="fill:#647fa1;opacity:0.5"/><path d="M34.999,78.001h-1a1,1,0,0,1,0-2h1a1,1,0,0,1,0,2Z" style="fill:#647fa1;opacity:0.5"/><path d="M39.999,78.001h-1a1,1,0,0,1,0-2h1a1,1,0,0,1,0,2Z" style="fill:#647fa1;opacity:0.5"/><path d="M44.999,78.001h-1a1,1,0,0,1,0-2h1a1,1,0,0,1,0,2Z" style="fill:#647fa1;opacity:0.5"/><path d="M43.999,70h-3a1,1,0,0,1,0-2h3a1,1,0,0,1,0,2Z" style="fill:#647fa1;opacity:0.5"/><path d="M52.999,70h-5a1,1,0,0,1,0-2h5a1,1,0,0,1,0,2Z" style="fill:#647fa1;opacity:0.5"/><path d="M42.999,74.00049h-9a1,1,0,0,1,0-2h9a1,1,0,0,1,0,2Z" style="fill:#647fa1;opacity:0.5"/><path d="M53,74.00049H46.999a1,1,0,0,1,0-2H53a1,1,0,0,1,0,2Z" style="fill:#647fa1;opacity:0.5"/><rect height="11.0001" style="fill:#f07171" width="18" x="68.00024" y="31.9998"/><circle cx="84.00007" cy="78" r="28" style="fill:#2c4b75;opacity:0.2"/><path d="M86,46a.99974.99974,0,0,1-1-1V24H68a1,1,0,0,1,0-2H85a2.00229,2.00229,0,0,1,2,2V45A.99974.99974,0,0,1,86,46Z" style="fill:#8699b0"/><path d="M63.88574,107.084a.99492.99492,0,0,1-.4082-.08789l-.92187-.41357A6.604,6.604,0,0,0,59.833,106H23.17969A2.09772,2.09772,0,0,1,21,104v-.438a1,1,0,0,1,2,0v.42578c.00684-.02881.06836.01221.17969.01221H59.833a8.60316,8.60316,0,0,1,3.541.75732l.92188.41357a1.00049,1.00049,0,0,1-.41016,1.91309ZM22,100.562a.99974.99974,0,0,1-1-1v-2a1,1,0,0,1,2,0v2A.99974.99974,0,0,1,22,100.562Zm0-6a.99974.99974,0,0,1-1-1V58.7749A5.14119,5.14119,0,0,0,19.25586,54.917a1.00016,1.00016,0,1,1,1.32227-1.501A7.14171,7.14171,0,0,1,23,58.7749V93.562A.99974.99974,0,0,1,22,94.562Z" style="fill:#8699b0"/><path d="M22,46a.99974.99974,0,0,1-1-1V27.42871a1,1,0,0,1,2,0V45A.99974.99974,0,0,1,22,46Zm.15723-21.542a1,1,0,0,1-.83887-1.5415A1.99642,1.99642,0,0,1,23,22h1a1,1,0,0,1,0,2H23A1.0012,1.0012,0,0,1,22.15723,24.458ZM68,24H28a1,1,0,0,1,0-2H68a1,1,0,0,1,0,2Z" style="fill:#8699b0"/><path d="M62.95,92.054a27,27,0,1,0,9-37.108A27,27,0,0,0,62.95,92.054ZM93.68864,73.31534a9,9,0,1,1-12.36932-3A8.99994,8.99994,0,0,1,93.68864,73.31534Z" style="fill:#cee2ee"/><path d="M93.24617,104.00919,89.14423,86.43107a8.98029,8.98029,0,0,1-5.87395.1356l-3.25883,17.75338A26.96128,26.96128,0,0,0,93.24617,104.00919Z" style="fill:#fff"/><path d="M77.83333,52.33855l4.10194,17.57812a8.98058,8.98058,0,0,1,5.874-.13555L91.068,52.02769A26.96066,26.96066,0,0,0,77.83333,52.33855Z" style="fill:#fff"/><path d="M112.88184,75.38392l-18.034.98778a9.01546,9.01546,0,0,1-.88328,5.80763l16.92027,6.293A27.107,27.107,0,0,0,112.88184,75.38392Z" style="fill:#cee2ee"/><path d="M59.12615,80.61614l18.03393-.98783a9.01448,9.01448,0,0,1,.88323-5.80759L61.123,67.52768A27.10761,27.10761,0,0,0,59.12615,80.61614Z" style="fill:#cee2ee"/><path d="M109.24755,64.27556,93.3293,72.78769c.12275.17286.24728.34384.35933.52765a8.95762,8.95762,0,0,1,1.30583,5.10731l17.98882-1.44691A26.86009,26.86009,0,0,0,109.24755,64.27556Z" style="fill:#cee2ee"/><path d="M62.76041,91.72444l15.91825-8.51213c-.12275-.17286-.24728-.34384-.35933-.52765a8.9573,8.9573,0,0,1-1.30583-5.10731L59.02467,79.02426A26.86009,26.86009,0,0,0,62.76041,91.72444Z" style="fill:#cee2ee"/><path d="M101.273,55.73369,90.44444,70.17449a8.80369,8.80369,0,0,1,3.87726,4.41418l15.69568-8.91592c-.29937-.58172-.61351-1.15929-.95942-1.72672A26.89018,26.89018,0,0,0,101.273,55.73369Z" style="fill:#b7d4e6"/><path d="M70.735,100.26631,81.56347,85.82554a8.804,8.804,0,0,1-3.8772-4.41421L61.99059,90.32725c.29937.58172.61351,1.15929.95942,1.72672A26.89018,26.89018,0,0,0,70.735,100.26631Z" style="fill:#b7d4e6"/><path d="M81.57691,104.62725,85.288,86.9627a9.00017,9.00017,0,0,1-5.38323-2.3524L69.4452,99.32771A27.04342,27.04342,0,0,0,81.57691,104.62725Z" style="fill:#d1e6f2"/><path d="M90.431,51.37278,86.71981,69.03736a9.00013,9.00013,0,0,1,5.3833,2.35229l10.45963-14.71736A27.043,27.043,0,0,0,90.431,51.37278Z" style="fill:#d1e6f2"/><path d="M80.99543,70.51279a8.9679,8.9679,0,0,1,2.76849-1.10191L77.70635,52.398a27.11483,27.11483,0,0,0-11.30609,6.8924L78.74759,72.46889A8.96827,8.96827,0,0,1,80.99543,70.51279Z" style="fill:#ff8585"/><path d="M90.36474,85.88211A8.96827,8.96827,0,0,1,87.5962,86.984l6.05759,17.01276a27.11483,27.11483,0,0,0,11.30616-6.89229L92.61252,83.926A8.9679,8.9679,0,0,1,90.36474,85.88211Z" style="fill:#ff8585"/><path d="M111.4626,86.98544,94.709,80.26249a8.964,8.964,0,0,1-3.25,4.89614L104.13006,98.0085A26.88555,26.88555,0,0,0,111.4626,86.98544Z" style="fill:#fff"/><path d="M60.5453,69.01459,77.299,75.73751a8.964,8.964,0,0,1,3.25-4.89614L67.87787,57.99158A26.88576,26.88576,0,0,0,60.5453,69.01459Z" style="fill:#fff"/><path d="M78.31932,82.68466a9,9,0,1,0,3-12.36932A8.9999,8.9999,0,0,0,78.31932,82.68466Zm11.95391-7.28725a5,5,0,1,1-6.87184-1.66667A5,5,0,0,1,90.27323,75.39741Z" style="fill:#fff"/><g style="opacity:0.5"><path d="M86.004,54A26.99941,26.99941,0,0,1,112.9604,79.5c.02722-.49677.04358-.9964.04358-1.5a27,27,0,1,0-54,0c0,.5036.01636,1.00323.04358,1.5A26.99941,26.99941,0,0,1,86.004,54Z" style="fill:#fff"/></g><g style="opacity:0.30000000000000004"><path d="M86.004,102A26.99941,26.99941,0,0,0,112.9604,76.5c.02722.49677.04358.9964.04358,1.5a27,27,0,1,1-54,0c0-.5036.01636-1.00323.04358-1.5A26.99941,26.99941,0,0,0,86.004,102Z" style="fill:#7690a8"/></g><path d="M86.004,69a9,9,0,1,0,9,9A8.9999,8.9999,0,0,0,86.004,69Zm0,14a5,5,0,1,1,5-5A5,5,0,0,1,86.004,83Z" style="fill:#eef6ff"/><path d="M86.00488,106.00049A28.01473,28.01473,0,0,1,64.93848,96.4458a1,1,0,1,1,1.50391-1.31836,26.01439,26.01439,0,0,0,19.5625,8.873c.70215,0,1.41309-.02832,2.11133-.084a25.71825,25.71825,0,0,0,13.18164-4.92041.99987.99987,0,1,1,1.18164,1.61328,27.71876,27.71876,0,0,1-14.20508,5.30127C87.52344,105.97021,86.75977,106.00049,86.00488,106.00049Zm18.9248-7.78955a1.00024,1.00024,0,0,1-.70215-1.7124,26.21611,26.21611,0,0,0,2.53613-2.895,1.0003,1.0003,0,0,1,1.59766,1.2041,28.38794,28.38794,0,0,1-2.72949,3.11572A.99774.99774,0,0,1,104.92969,98.21094Zm4.7998-6.36133a.99959.99959,0,0,1-.877-1.479A25.47615,25.47615,0,0,0,111.9541,79.627q.05127-.821.05078-1.62939c0-.77344-.03418-1.54834-.10156-2.30273-.01855-.2085-.02734-.415-.02734-.62109a6.5695,6.5695,0,0,1,1.82227-4.60254,1,1,0,0,1,1.4375,1.39063,4.57941,4.57941,0,0,0-1.25977,3.21191c0,.14746.00684.29639.01953.44482.07227.812.10938,1.64648.10938,2.479q0,.87012-.05469,1.752a27.47047,27.47047,0,0,1-3.3418,11.5791A.999.999,0,0,1,109.72949,91.84961ZM61.43555,90.21143a.99974.99974,0,0,1-.91016-.584,27.75845,27.75845,0,0,1-2.52148-11.626c0-.75586.03027-1.52.08984-2.27148A27.45126,27.45126,0,0,1,61.752,64.03125a1,1,0,1,1,1.73047,1.00293A25.46126,25.46126,0,0,0,60.08789,75.8877c-.05566.69971-.084,1.41064-.084,2.11377a25.76958,25.76958,0,0,0,2.33984,10.79395,1.00016,1.00016,0,0,1-.9082,1.416Zm3.43262-27.97852a1,1,0,0,1-.78125-1.623,28.51162,28.51162,0,0,1,2.80859-3.04395,1.00009,1.00009,0,0,1,1.36719,1.46A26.622,26.622,0,0,0,65.65137,61.856.99834.99834,0,0,1,64.86816,62.23291Zm41.90527-.48682a.99578.99578,0,0,1-.76953-.36084A25.94319,25.94319,0,0,0,86.00293,52c-.78906,0-1.58984.03564-2.37988.106a25.74237,25.74237,0,0,0-12.36621,4.49951,1.00029,1.00029,0,0,1-1.14062-1.64355,27.75222,27.75222,0,0,1,13.3291-4.84814c.84961-.07568,1.71-.11377,2.55762-.11377A27.93485,27.93485,0,0,1,107.541,60.10693a.99945.99945,0,0,1-.76758,1.63916Z" style="fill:#647fa1"/><path d="M86.00391,84a6.00214,6.00214,0,0,1-5.458-8.49463,1,1,0,0,1,1.81836.833A3.95943,3.95943,0,0,0,82.00391,78a4,4,0,1,0,4-4H86.001a3.98021,3.98021,0,0,0-1.3418.231,1,1,0,0,1-.67187-1.88379A5.96726,5.96726,0,0,1,86,72h.00488a6,6,0,0,1-.001,12Z" style="fill:#647fa1"/></svg>