<?xml version="1.0" ?><svg height="128" id="STROKE_8" viewBox="0 0 128 128" width="128" xmlns="http://www.w3.org/2000/svg"><title/><circle cx="64" cy="64" r="55" style="fill:#abdbf5;opacity:0.3"/><g style="opacity:0.65"><path d="M119.99609,95.99951a3.99048,3.99048,0,0,1-1.1582-.17236,1,1,0,1,1,.58008-1.91406,2.00008,2.00008,0,1,0-1.333-2.49414,1.00016,1.00016,0,1,1-1.91406-.58105,4.00035,4.00035,0,1,1,3.8252,5.16162Z" style="fill:#647fa1"/><path d="M59.99219,124.001a4.00193,4.00193,0,0,1-3.34473-6.18262.99977.99977,0,1,1,1.67578,1.09082,2.00017,2.00017,0,1,0,2.76758-.58643,1,1,0,0,1,1.0918-1.67578,4.00042,4.00042,0,0,1-1.35449,7.26611A4.05225,4.05225,0,0,1,59.99219,124.001Z" style="fill:#647fa1"/><path d="M5,73a.99974.99974,0,0,1-1-1V71a1,1,0,0,1,2,0v1A.99974.99974,0,0,1,5,73Z" style="fill:#647fa1"/><path d="M5,78a.99974.99974,0,0,1-1-1V76a1,1,0,0,1,2,0v1A.99974.99974,0,0,1,5,78Z" style="fill:#647fa1"/><path d="M3,75H2a1,1,0,0,1,0-2H3a1,1,0,0,1,0,2Z" style="fill:#647fa1"/><path d="M8,75H7a1,1,0,0,1,0-2H8a1,1,0,0,1,0,2Z" style="fill:#647fa1"/><path d="M97,6a.99974.99974,0,0,1-1-1V4a1,1,0,0,1,2,0V5A.99974.99974,0,0,1,97,6Z" style="fill:#647fa1"/><path d="M97,13a.99974.99974,0,0,1-1-1V11a1,1,0,0,1,2,0v1A.99974.99974,0,0,1,97,13Z" style="fill:#647fa1"/><path d="M94,9H93a1,1,0,0,1,0-2h1a1,1,0,0,1,0,2Z" style="fill:#647fa1"/><path d="M101,9h-1a1,1,0,0,1,0-2h1a1,1,0,0,1,0,2Z" style="fill:#647fa1"/><path d="M15.22168,28.43506a.99676.99676,0,0,1-.707-.293L8.8584,22.48535a.99964.99964,0,0,1,0-1.41406L16.63574,13.293a.99928.99928,0,0,1,.707-.293H23a.99974.99974,0,0,1,1,1v5.34375a1,1,0,0,1-2,0V15H17.75684l-6.77734,6.77832L15.92871,26.728a1,1,0,0,1-.707,1.707Zm2.34277-2.34277a1,1,0,0,1-.707-1.707l2.82813-2.82861a.99989.99989,0,0,1,1.41406,1.41406l-2.82812,2.82861A.99676.99676,0,0,1,17.56445,26.09229Z" style="fill:#647fa1"/><path d="M19.46973,18.54a.99758.99758,0,0,1-.71-1.71045.99817.99817,0,0,1,.90039-.26953,1.29154,1.29154,0,0,1,.18945.0498c.06055.02979.12012.06006.16992.08984a1.78125,1.78125,0,0,1,.15039.12988,1.002,1.002,0,0,1,0,1.41016,1.69646,1.69646,0,0,1-.15039.12988c-.0498.03027-.10937.06006-.16992.09033-.05957.02-.12988.04-.18945.06006A1.26017,1.26017,0,0,1,19.46973,18.54Z" style="fill:#647fa1"/><path d="M32.11133,13.99854A1.00035,1.00035,0,0,1,31.24512,13.5a3.00123,3.00123,0,0,0-4.583-.75049,1.00008,1.00008,0,1,1-1.32422-1.499,5.00159,5.00159,0,0,1,7.6377,1.24658,1.00031,1.00031,0,0,1-.86426,1.50146Z" style="fill:#647fa1"/></g><path d="M18,105a6,6,0,0,0,6,6H42a8,8,0,0,1-8-8V64H18Z" style="fill:#cee2ee"/><path d="M34.26221,105H24a6,6,0,0,1-6-6v6a6,6,0,0,0,6,6H42A7.99586,7.99586,0,0,1,34.26221,105Z" style="fill:#7690a8;opacity:0.15"/><path d="M42,112H24a6.95606,6.95606,0,0,1-4.02637-1.27344.99988.99988,0,0,1,1.15039-1.63574A4.97119,4.97119,0,0,0,24,110H42a1,1,0,0,1,0,2Zm-23.748-4.27441a1.00065,1.00065,0,0,1-.958-.71289A6.99034,6.99034,0,0,1,17,105v-2.25a1,1,0,0,1,2,0V105a4.97857,4.97857,0,0,0,.21,1.4375,1.00276,1.00276,0,0,1-.958,1.28809ZM18,99.75a.99974.99974,0,0,1-1-1V64a.99974.99974,0,0,1,1-1h5.25a1,1,0,0,1,0,2H19V98.75A.99974.99974,0,0,1,18,99.75Z" style="fill:#8699b0"/><path d="M30,104c0,4-2,7-6,7h76a6,6,0,0,0,6-6V23H30v81Z" style="fill:#fff"/><path d="M100,105H29.95062c-.31287,3.488-2.29279,6-5.95062,6h76a6,6,0,0,0,6-6V99A6,6,0,0,1,100,105Z" style="fill:#7690a8;opacity:0.15"/><g style="opacity:0.5"><path d="M54,86H37a1,1,0,0,1,0-2H54a1,1,0,0,1,0,2Z" style="fill:#8699b0"/><path d="M76,86H60a1,1,0,0,1,0-2H76a1,1,0,0,1,0,2Z" style="fill:#8699b0"/><path d="M76,90H60a1,1,0,0,1,0-2H76a1,1,0,0,1,0,2Z" style="fill:#8699b0"/><path d="M54,94H37a1,1,0,0,1,0-2H54a1,1,0,0,1,0,2Z" style="fill:#8699b0"/><path d="M62.5791,94H60a1,1,0,0,1,0-2h2.5791a1,1,0,0,1,0,2Z" style="fill:#8699b0"/><path d="M76,94H68.1543a1,1,0,0,1,0-2H76a1,1,0,0,1,0,2Z" style="fill:#8699b0"/><path d="M38.30762,90H37a1,1,0,0,1,0-2h1.30762a1,1,0,0,1,0,2Z" style="fill:#8699b0"/><path d="M54,90H42.23047a1,1,0,0,1,0-2H54a1,1,0,0,1,0,2Z" style="fill:#8699b0"/><path d="M54,98H37a1,1,0,0,1,0-2H54a1,1,0,0,1,0,2Z" style="fill:#8699b0"/><path d="M76,98H60a1,1,0,0,1,0-2H76a1,1,0,0,1,0,2Z" style="fill:#8699b0"/><path d="M54,102H37a1,1,0,0,1,0-2H54a1,1,0,0,1,0,2Z" style="fill:#8699b0"/><path d="M99,86H82a1,1,0,0,1,0-2H99a1,1,0,0,1,0,2Z" style="fill:#8699b0"/><path d="M99,94H82a1,1,0,0,1,0-2H99a1,1,0,0,1,0,2Z" style="fill:#8699b0"/><path d="M83.30762,90H82a1,1,0,0,1,0-2h1.30762a1,1,0,0,1,0,2Z" style="fill:#8699b0"/><path d="M99,90H87.23047a1,1,0,0,1,0-2H99a1,1,0,0,1,0,2Z" style="fill:#8699b0"/><path d="M99,98H82a1,1,0,0,1,0-2H99a1,1,0,0,1,0,2Z" style="fill:#8699b0"/><path d="M99,102H82a1,1,0,0,1,0-2H99a1,1,0,0,1,0,2Z" style="fill:#8699b0"/><path d="M76,102H60a1,1,0,0,1,0-2H76a1,1,0,0,1,0,2Z" style="fill:#8699b0"/></g><path d="M106,20v8H30V20a4.01176,4.01176,0,0,1,4-4h68A4.01176,4.01176,0,0,1,106,20Z" style="fill:#deeef7"/><path d="M102,16H34a4.01178,4.01178,0,0,0-4,4v3a4.01178,4.01178,0,0,1,4-4h68a4.01174,4.01174,0,0,1,4,4V20A4.01174,4.01174,0,0,0,102,16Z" style="fill:#fff;opacity:0.4"/><rect height="4" rx="2" ry="2" style="fill:#deeef7" width="38.00004" x="63.99996" y="20"/><circle cx="35.99986" cy="22" r="2" style="fill:#ff8585"/><circle cx="43.99986" cy="22" r="2" style="fill:#ffd180"/><circle cx="51.99986" cy="22" r="2" style="fill:#89dbd7"/><rect height="30" style="fill:#b8d1e0" width="35" x="36" y="50.99999"/><rect height="3" style="fill:#2c4b75;opacity:0.2" width="35" x="36" y="50.99999"/><g style="opacity:0.2"><polygon points="64.92 51 36 79.92 36 81 39.163 81 69.163 51 64.92 51" style="fill:#fff"/><polygon points="43.406 81 71 81 71 53.406 43.406 81" style="fill:#fff"/></g><rect height="30.00001" style="fill:#cee2ee" width="24" x="76" y="50.99999"/><rect height="16" style="fill:#b8d1e0" width="24" x="76" y="51"/><polygon points="100 67 100 51 97 51 81 67 100 67" style="fill:#fff;opacity:0.2"/><rect height="3" style="fill:#2c4b75;opacity:0.2" width="24" x="76" y="50.99999"/><path d="M28,44h0a4,4,0,0,1-4-4V38h8v2A4,4,0,0,1,28,44Z" style="fill:#e87272"/><path d="M36,44h0a4,4,0,0,1-4-4V38h8v2A4,4,0,0,1,36,44Z" style="fill:#e1e5e8"/><path d="M44,44h0a4,4,0,0,1-4-4V38h8v2A4,4,0,0,1,44,44Z" style="fill:#e87272"/><path d="M52,44h0a4,4,0,0,1-4-4V38h8v2A4,4,0,0,1,52,44Z" style="fill:#e1e5e8"/><path d="M60,44h0a4,4,0,0,1-4-4V38h8v2A4,4,0,0,1,60,44Z" style="fill:#e87272"/><path d="M76,44h0a4,4,0,0,1-4-4V38h8v2A4,4,0,0,1,76,44Z" style="fill:#e87272"/><path d="M84,44h0a4,4,0,0,1-4-4V38h8v2A4,4,0,0,1,84,44Z" style="fill:#e1e5e8"/><path d="M92,44h0a4,4,0,0,1-4-4V38h8v2A4,4,0,0,1,92,44Z" style="fill:#e87272"/><path d="M100,44h0a4,4,0,0,1-4-4V38h8v2A4,4,0,0,1,100,44Z" style="fill:#e1e5e8"/><path d="M108,44h0a4,4,0,0,1-4-4V38h8v2A4,4,0,0,1,108,44Z" style="fill:#e87272"/><polygon points="32 38 24 38 30 28 36 28 32 38" style="fill:#ff8585"/><polygon points="40 38 32 38 36 28 43 28 40 38" style="fill:#fff"/><polygon points="48 38 40 38 43 28 50 28 48 38" style="fill:#ff8585"/><polygon points="56 38 48 38 50 28 57 28 56 38" style="fill:#fff"/><polygon points="64 38 56 38 57 28 64 28 64 38" style="fill:#ff8585"/><path d="M68,44h0a4,4,0,0,1-4-4V38h8v2A4,4,0,0,1,68,44Z" style="fill:#e1e5e8"/><rect height="10" style="fill:#fff" width="8" x="64" y="28"/><polygon points="80 38 72 38 72 28 79 28 80 38" style="fill:#ff8585"/><polygon points="88 38 80 38 79 28 86 28 88 38" style="fill:#fff"/><polygon points="96 38 88 38 86 28 93 28 96 38" style="fill:#ff8585"/><polygon points="104 38 96 38 93 28 100 28 104 38" style="fill:#fff"/><polygon points="112 38 104 38 100 28 106 28 112 38" style="fill:#ff8585"/><path d="M100,112H92.75a1,1,0,0,1,0-2H100a5.00589,5.00589,0,0,0,5-5V61.67822a1,1,0,0,1,2,0V105A7.00818,7.00818,0,0,1,100,112Zm6-53.32178a.99974.99974,0,0,1-1-1v-4a1,1,0,0,1,2,0v4A.99974.99974,0,0,1,106,58.67822Zm0-8a.99974.99974,0,0,1-1-1V43.44531a.99984.99984,0,0,1,1.50293-.86426,2.89432,2.89432,0,0,0,1.71.41113A3.16216,3.16216,0,0,0,111,39.75146V38.27686l-5.85742-9.76221A.997.997,0,0,1,105,28V20a3.01118,3.01118,0,0,0-1.24023-2.43018.99994.99994,0,0,1,1.17383-1.61914A5.01689,5.01689,0,0,1,107,20v7.72314l5.85742,9.76221A.997.997,0,0,1,113,38v1.75146a5.16746,5.16746,0,0,1-4.63672,5.23486A4.80655,4.80655,0,0,1,107,44.89551v4.78271A.99974.99974,0,0,1,106,50.67822ZM100.50781,17H78.5a12.08321,12.08321,0,0,1-8.06152-3.0791l.6582-.75439.707-.707A10.05923,10.05923,0,0,0,78.5,15h22.00781a1,1,0,0,1,0,2Z" style="fill:#8699b0"/><path d="M83.666,113.4165a.99268.99268,0,0,1-.59277-.1958A6.28553,6.28553,0,0,0,79.36621,112h-20.624a1,1,0,0,1,0-2h20.624a8.29216,8.29216,0,0,1,4.89453,1.6123.9996.9996,0,0,1-.59473,1.8042ZM54.74219,112h-4a1,1,0,0,1,0-2h4a1,1,0,0,1,0,2Zm-8,0H24a1,1,0,0,1,0-2,5.00589,5.00589,0,0,0,5-5V87.17041a1,1,0,0,1,2,0V105a6.979,6.979,0,0,1-2.10547,5H46.74219a1,1,0,0,1,0,2ZM30,84.17041a.99974.99974,0,0,1-1-1V44.228a1.00093,1.00093,0,0,1,.31152-1.54639c.06055-.03027.12012-.062.17773-.09619A.99984.99984,0,0,1,31,43.44531v39.7251A.99974.99974,0,0,1,30,84.17041ZM25.94336,44.39258a.9937.9937,0,0,1-.541-.15967,5.33174,5.33174,0,0,1-2.38965-4.11182,1.00042,1.00042,0,0,1,1.99609-.1377,3.36629,3.36629,0,0,0,1.47754,2.56885.99982.99982,0,0,1-.543,1.84033Zm-.94238-7.0625a1,1,0,0,1-.85645-1.51465L29,27.72314V20a5.00589,5.00589,0,0,1,5-5H60a1,1,0,0,1,0,2H34a3.00328,3.00328,0,0,0-3,3v8a.997.997,0,0,1-.14258.51465l-4.998,8.33008A.99894.99894,0,0,1,25.001,37.33008Z" style="fill:#8699b0"/><rect height="4" style="fill:#9baac7" width="2" x="95" y="69"/></svg>